<svg xmlns="http://www.w3.org/2000/svg" width="806" height="792" viewBox="0 0 806 792"><path fill-rule="evenodd" d="M371.5 1.51C248.302 12.719 141.601 73.737 72.495 172.5c-82.69 118.176-94.519 269.72-31.003 397.198 46.785 93.9 131.707 167.477 230.61 199.801 87.575 28.621 174.221 28.621 261.796 0 117.576-38.427 214.12-134.788 251.475-250.999C795.931 485.653 805 437.415 805 414.102c0-3.841.45-7.262 1-7.602s1-4.443 1-9.118-.382-8.264-.848-7.976-1.125-5.648-1.464-13.191c-6.153-136.898-94.071-269.744-220.442-333.091C520.013 10.924 440.016-4.723 371.5 1.51M320 44.134C122.966 89.405.328 280.953 44.139 475 67.407 578.057 138.98 668.507 235.51 716.844c191.302 95.794 424.44 11.569 507.506-183.344C826.57 337.44 715.117 108.959 507 49.66c-29.522-8.412-33.857-8.578-49.754-1.899-26.383 11.085-40.187 30.154-46.863 64.739-1.912 9.9-3.688 19.012-3.948 20.25-.576 2.74-2.435 2.997-2.435.337 0-3.256-5.945-33.305-7.634-38.587-8.225-25.722-31.695-46.577-57.86-51.414-7.399-1.368-8.186-1.323-18.506 1.048m19.968 93.579c-4.674 3.298-23.359 18.511-29.946 24.38-31.805 28.342-48.37 37.933-92.522 53.574a898 898 0 0 0-14.5 5.314c-4.125 1.559-10.425 3.384-14 4.055s-13.7 3.233-22.5 5.693c-18.887 5.281-27.938 7.618-35.668 9.211-5.415 1.116-6.156 1.672-16.666 12.521-14.651 15.124-13.721 13.142-16.21 34.539-1.267 10.902-2.974 20.759-4.154 24C82.106 343.109 73 372.101 73 377.226c0 3.004 4.104 8.078 21.844 27.008 4.039 4.31 7.141 8.383 6.894 9.051-3.126 8.454-4.73 20.655-6.262 47.637-.919 16.181-1.864 29.925-2.1 30.541-.237.617 4.644 4.076 10.847 7.688s17.812 10.381 25.8 15.043C144.522 522.655 150 525.056 150 522.95c0-.599 1.012-.945 2.25-.77 2.745.39 3.412 4.132 1.846 10.353-1.014 4.026-.646 5.376 7.522 27.6 4.723 12.852 9.483 25.954 10.577 29.117 1.673 4.838 2.367 5.75 4.375 5.75 2.288 0 33.299 6.917 49.852 11.119 4.357 1.106 8.966 1.749 10.242 1.429 1.721-.432 2.903.108 4.578 2.091 1.242 1.47 11.186 12.891 22.098 25.378l19.84 22.706 6.66-1.288c3.663-.709 16.951-2.989 29.529-5.067 21.765-3.596 23.068-3.937 27-7.064 5.109-4.062 5.302-4.062 7.232-.015 1.659 3.48 3.208 4.559 33.676 23.457l16.777 10.406 8.321-4.499c4.577-2.475 13.452-7.74 19.723-11.7s13.946-8.804 17.056-10.764c3.479-2.193 6.262-4.838 7.234-6.876 1.942-4.073 2.131-4.074 7.243-.009 3.932 3.127 5.235 3.468 27 7.064 12.578 2.078 25.866 4.358 29.529 5.067l6.66 1.288 19.84-22.706c10.912-12.487 20.856-23.908 22.098-25.378 1.675-1.983 2.857-2.523 4.578-2.091 1.276.32 5.885-.323 10.242-1.429C600.131 601.917 631.142 595 633.43 595c2.008 0 2.702-.912 4.375-5.75 1.094-3.163 5.854-16.265 10.577-29.117 8.168-22.224 8.536-23.574 7.522-27.6-1.566-6.221-.899-9.963 1.846-10.353 1.237-.175 2.25.171 2.25.77 0 2.106 5.478-.295 19.977-8.756 7.988-4.662 19.598-11.431 25.8-15.043s11.084-7.071 10.847-7.688c-.236-.616-1.181-14.36-2.1-30.541-1.532-26.982-3.136-39.183-6.262-47.637-.247-.668 2.855-4.741 6.894-9.051C732.896 385.304 737 380.23 737 377.226c0-5.125-9.106-34.117-20.802-66.226-1.18-3.241-2.887-13.098-4.154-24-2.489-21.397-1.559-19.415-16.21-34.539-10.51-10.849-11.251-11.405-16.666-12.521-7.73-1.593-16.781-3.93-35.668-9.211-8.8-2.46-18.925-5.023-22.5-5.693-3.575-.671-9.875-2.496-14-4.055a898 898 0 0 0-14.5-5.314c-44.145-15.638-60.557-25.138-92.5-53.542C487.019 150.582 468.105 136 466.114 136c-6.896 0-22.549 8.616-32.209 17.728-14.317 13.506-19.968 25.472-25.13 53.215-1.888 10.143-3.858 18.585-4.379 18.758-.521.174-2.201-6.55-3.733-14.943-5.095-27.898-10.15-40.325-21.511-52.879-12.526-13.842-33.123-24.442-39.184-20.166m-22.595 44.985c-3.78 4.235-12.611 14.021-19.623 21.749-7.281 8.024-12.75 14.897-12.75 16.024 0 1.964.009 1.964 1.846.001 2.503-2.674 24.467-28.525 30.564-35.972 2.701-3.3 5.584-6.787 6.406-7.75s1.254-1.75.962-1.75-3.626 3.464-7.405 7.698m168.816-6.198c10.925 14.518 38.311 45.689 38.653 43.996.189-.932-.741-2.887-2.066-4.345s-8.679-9.608-16.342-18.112c-14.657-16.263-22.771-24.896-20.245-21.539m-183.461 15.903c-8.633 9.022-19.527 19.71-24.209 23.75-7.526 6.495-10.165 9.847-7.751 9.847 1.225 0 10.28-7.672 15.732-13.33 6.607-6.857 29.626-32.376 31.372-34.781 3.092-4.257-.215-1.088-15.144 14.514m189.363-14.764c1.541 2.34 23.406 26.726 31.409 35.031 5.452 5.658 14.507 13.33 15.732 13.33 2.389 0-.129-3.31-6.867-9.025-4.199-3.561-15.295-14.35-24.659-23.975s-16.39-16.537-15.615-15.361M329.356 201.75a7101 7101 0 0 1-12.875 17.75C307.869 231.312 299 244.695 299 245.877c0 2 1.452 1.113 3.554-2.169 1.13-1.765 9.559-14.345 18.731-27.958S337.774 191 337.545 191s-3.914 4.838-8.189 10.75m159.238 13.75c9.239 13.75 17.722 26.443 18.852 28.208 2.102 3.282 3.554 4.169 3.554 2.169 0-1.395-8.193-13.493-24.029-35.482-17.89-24.843-17.345-23.126 1.623 5.105m-160.037-5.748c-1.618 2.611-8.494 13.202-15.279 23.535-8.499 12.944-12.086 19.234-11.531 20.225.568 1.015 4.463-4.659 13.241-19.287 6.839-11.399 13.712-22.637 15.272-24.975s2.477-4.249 2.038-4.248-2.122 2.138-3.741 4.75m11.275 22.998c-17.493 33.772-18.198 35.284-17.009 36.473.978.978 3.411-3.746 21.231-41.223 5.622-11.825 10.412-21.838 10.643-22.25.232-.412.216-.75-.035-.75s-6.924 12.488-14.83 27.75m115.471-27c.231.412 5.021 10.425 10.643 22.25 17.82 37.477 20.253 42.201 21.231 41.223.574-.574.247-2.425-.852-4.827-3.29-7.19-30.526-59.396-30.987-59.396-.251 0-.267.338-.035.75m24.437 3.5c1.56 2.338 8.433 13.576 15.272 24.975 8.778 14.628 12.673 20.302 13.241 19.287.555-.991-3.032-7.281-11.531-20.225-6.785-10.333-13.661-20.924-15.279-23.535s-3.302-4.749-3.741-4.75.478 1.91 2.038 4.248m-129.776 12.333c-1.08 2.521-1.964 4.73-1.964 4.909 0 .18-4.957 10.792-11.015 23.584-7.632 16.116-10.818 23.876-10.374 25.274.823 2.594 1.482 1.376 8.981-16.603 3.039-7.286 7.373-17.522 9.631-22.747 4.859-11.245 7.78-19 7.155-19-.247 0-1.333 2.062-2.414 4.583m108.955.16c.964 2.616 3.6 9.032 5.858 14.257s6.592 15.461 9.631 22.747c7.499 17.979 8.158 19.197 8.981 16.603.443-1.397-2.695-9.065-10.204-24.934-5.965-12.604-11.663-25.068-12.663-27.699-1-2.63-2.164-4.996-2.587-5.257-.422-.261.021 1.666.984 4.283M277 224.972c-2.613 2.273-4.368 4.603-4.186 5.558.225 1.179-.2 1.492-1.5 1.104-1.215-.363-5.342 2.001-12.501 7.162-5.878 4.237-17.466 12.57-25.75 18.518-15.592 11.193-16.033 11.636-13.603 13.653 1.193.99 2.586.327 7.622-3.628 3.389-2.661 10.8-8.214 16.469-12.339 26.766-19.476 40.989-31.317 39.844-33.17-.844-1.366-1.686-.952-6.395 3.142m88.05 15.213c-3.384 10.623-8.178 24.888-10.653 31.699-4.272 11.753-5.122 16.616-2.906 16.616.545 0 2.267-4.5 3.826-10 3.649-12.867 12.323-42.167 14.895-50.314 1.097-3.473 1.768-6.539 1.492-6.815-.275-.276-3.27 8.191-6.654 18.814M438 221.512c0 .843 1.283 5.2 7.003 23.777 1.658 5.384 5.065 17.084 7.57 26 4.733 16.84 5.849 19.381 7.089 16.149.464-1.208-.639-5.715-3.038-12.417-2.071-5.787-6.858-20.133-10.637-31.88-6.225-19.35-7.987-24.121-7.987-21.629m88.605.318c-1.145 1.853 13.078 13.694 39.844 33.17 5.669 4.125 13.08 9.678 16.469 12.339 5.036 3.955 6.429 4.618 7.622 3.628 2.43-2.017 1.989-2.46-13.603-13.653a21336 21336 0 0 1-25.75-18.518c-7.47-5.385-11.259-7.532-12.588-7.134-1.43.428-1.753.181-1.301-.996.908-2.368-9.417-10.9-10.693-8.836m-274.12 13.794a3758 3758 0 0 1-27.735 19.139c-13.42 9.143-13.847 9.58-10.901 11.156 1.526.817 4.9-1.225 19.355-11.715 9.628-6.987 21.609-15.629 26.623-19.204 8.45-6.024 10.359-8.149 8.408-9.355-.421-.26-7.509 4.231-15.75 9.979m118.178 1.124c-2.017 6.463-3.666 12.281-3.665 12.927.001.647-1.844 7.172-4.101 14.5-6.077 19.735-8.047 27.778-7.344 29.993 1.082 3.407.975 3.75 10.336-33.168 1.186-4.675 3.76-14.498 5.721-21.829 4.456-16.659 3.921-18.028-.947-2.423m64.411-11.194c-.041.58 1.444 6.655 3.299 13.5 1.855 6.846 4.386 16.496 5.624 21.446 8.804 35.201 9.377 37.047 10.45 33.668.686-2.162-1.28-10.36-6.756-28.168-1.944-6.325-4.453-15.1-5.574-19.5-2.199-8.626-6.921-22.67-7.043-20.946m106.299.916c-.341.889-.452 1.764-.247 1.945s8.535 6.203 18.509 13.383 21.846 15.772 26.38 19.094c6.732 4.931 8.588 5.855 10.115 5.038 2.967-1.587 2.627-1.922-12.38-12.213a7286 7286 0 0 1-28.003-19.317c-11.074-7.686-13.874-9.231-14.374-7.93m-148.833 5.28c-.38 3.162-2.639 17.45-5.021 31.75-6.185 37.137-6.005 35.44-3.688 34.834 1.54-.403 2.067-1.751 2.609-6.669.374-3.391 1.75-13.815 3.058-23.165s2.623-19.7 2.922-23c.3-3.3.836-9.037 1.192-12.75.787-8.212-.106-9.045-1.072-1m24.02.75c.855 12.591 1.531 18.763 3.942 36 1.308 9.35 2.684 19.774 3.058 23.165.545 4.951 1.064 6.265 2.635 6.676 1.777.465 1.899.13 1.335-3.665-1.027-6.91-9.369-57.763-10.445-63.676l-1.001-5.5zm-19.935-.274c-.363 2.9-2.002 16.974-3.644 31.274s-3.254 28.045-3.584 30.543c-.452 3.422-.219 4.86.942 5.824 1.329 1.102 1.61.818 2.028-2.044.951-6.513 5.774-70.015 5.35-70.44-.238-.237-.729 1.942-1.092 4.843m15.858.774c.818 12.939 4.686 61.581 5.155 64.823.414 2.868.693 3.147 2.028 2.039 1.127-.935 1.398-2.383.997-5.323-.303-2.222-1.937-16.189-3.631-31.039-3.346-29.328-5.306-42.467-4.549-30.5m-127.62 27.75c-39.141 40.291-52.073 54.936-50.608 57.316 1.209 1.963 1.329 1.926 4.141-1.272 1.593-1.812 8.595-9.369 15.559-16.794 36.434-38.846 44.334-47.723 43.571-48.958-1.162-1.881-2.11-1.154-12.663 9.708m227.611-9.708c-.763 1.235 7.137 10.112 43.571 48.958 6.964 7.425 13.966 14.982 15.559 16.794 2.812 3.198 2.932 3.235 4.141 1.272 1.465-2.38-11.467-17.025-50.608-57.316-10.553-10.862-11.501-11.589-12.663-9.708m-228.2 19.769a8795 8795 0 0 1-30.755 33.689c-11.426 12.442-16.451 18.618-16.275 20 .458 3.579 2.28 2.184 13.712-10.5 6.197-6.875 16.543-18.35 22.991-25.5 20.408-22.627 25.341-28.615 25.612-31.09.415-3.774-.203-3.232-15.285 13.401m226.161-13.457c.277 2.529 5.14 8.441 25.618 31.146 6.448 7.15 16.794 18.625 22.991 25.5 11.431 12.683 13.255 14.08 13.71 10.5.175-1.376-4.506-7.191-15-18.633-8.39-9.148-22.211-24.223-30.713-33.5-17.002-18.55-16.994-18.542-16.606-15.013M199.5 269.515c-3.85 1.867-11.444 5.439-16.876 7.936-8.528 3.922-9.703 4.749-8.608 6.068 1.616 1.948 1.733 1.907 21.704-7.654 12.312-5.894 16.311-8.233 15.237-8.913-2.287-1.446-3.968-1.07-11.457 2.563m399.543-2.563c-1.074.68 2.925 3.019 15.237 8.913 19.952 9.552 20.089 9.6 21.694 7.667 1.078-1.299.034-2.082-7.359-5.523-29.284-13.627-26.911-12.74-29.572-11.057M204 274.853c-22.516 10.233-26 12.213-26 14.774 0 1.305.422 2.373.937 2.373.76 0 37.657-17.65 38.932-18.623.379-.29-2.47-3.409-3.048-3.337-.176.023-5.046 2.188-10.821 4.813m389.149-3.249c-.743.84-1.193 1.646-1 1.791 1.309.983 38.166 18.605 38.914 18.605.515 0 .937-1.067.937-2.372 0-2.023-1.582-3.145-10.75-7.628-9.137-4.467-26.068-12.085-26.589-11.962-.088.021-.769.726-1.512 1.566M313.254 282.25c-3.274 5.087-9.673 15.55-14.222 23.25s-9.099 15.196-10.113 16.659c-9.173 13.228-19.829 33.14-18.783 35.096 1.354 2.53 1.512 2.359 8.026-8.702a980 980 0 0 1 7.844-13.053c2.03-3.3 10.346-17.25 18.48-31s15.421-26.025 16.193-27.278c1.365-2.215 1.063-4.222-.635-4.222-.461 0-3.517 4.163-6.79 9.25m175.263-8.278c-.33.534.032 1.997.804 3.25s8.059 13.528 16.193 27.278 16.45 27.7 18.48 31a980 980 0 0 1 7.844 13.053c6.514 11.061 6.672 11.232 8.026 8.702 1.046-1.956-9.61-21.868-18.783-35.096-1.014-1.463-5.565-8.959-10.113-16.659-16.461-27.866-20.879-34.071-22.451-31.528M311.131 299c-7.354 12.375-15.048 25.2-17.1 28.5-16.679 26.829-22.106 38.099-19.207 39.891.452.28 6.826-9.706 14.163-22.191s14.546-24.725 16.021-27.2 5.298-9.225 8.497-15 7.118-12.685 8.711-15.355q2.895-4.856 2.59-8c-.27-2.778-1.868-.517-13.675 19.355M485 279.785c0 1.752 1.278 5.329 2.84 7.95s5.457 9.49 8.655 15.265c3.199 5.775 7.022 12.525 8.497 15s8.684 14.715 16.021 27.2 13.711 22.471 14.163 22.191c2.9-1.792-2.478-12.962-19.203-39.891-2.05-3.3-9.463-15.675-16.474-27.5C484.885 275.35 485 275.51 485 279.785m-321.5 6.053c-3.3 1.366-12.241 4.399-19.868 6.741-14.688 4.509-15.034 4.684-16.072 8.122-.72 2.389 1.31 1.817 27.44-7.728a2354 2354 0 0 1 13.318-4.822c4.517-1.611 4.704-1.814 3-3.257-1.652-1.399-2.367-1.313-7.818.944m475.05-.894c-1.396 1.544-1.13 1.816 3.214 3.29 2.605.884 8.561 3.01 13.236 4.726 25.775 9.456 28.16 10.129 27.44 7.741-1.038-3.439-1.385-3.614-16.072-8.115-7.627-2.337-16.664-5.391-20.082-6.787-5.799-2.368-6.315-2.425-7.736-.855m-468.05 5.377c-1.65.603-8.175 3.071-14.5 5.484s-12.53 4.581-13.788 4.818c-9.179 1.725-21.555 9.368-19.117 11.805.587.587 11.584-3.024 23.905-7.85 27.771-10.877 28.5-11.211 28.5-13.071 0-2.301-1.182-2.581-5-1.186m463.92.027c-.943 2.457-.156 2.998 10.258 7.054A8000 8000 0 0 1 663 304.567c12.234 4.807 23.315 8.451 23.905 7.861 2.436-2.436-9.876-10.044-19.117-11.813-1.258-.241-6.563-2.107-11.788-4.146s-11.3-4.286-13.5-4.994c-2.2-.707-4.784-1.6-5.742-1.984-1.135-.455-1.949-.157-2.338.857m-287.923 4.878c-.957 2.351-3.221 8.549-5.031 13.774a2017 2017 0 0 1-7.447 21c-18.781 51.948-20.466 57.068-19.362 58.818 2.61 4.138 2.447 4.517 18.812-43.818 4.749-14.025 10.348-30.225 12.443-36 4.994-13.77 5.376-15.516 3.697-16.91-1.101-.914-1.716-.294-3.112 3.136m113.673-2.931c-1.292 1.557-.84 3.255 6.18 23.205 4.251 12.083 24.592 71.27 25.359 73.791.62 2.035 2.18 1.832 3.634-.473 1.108-1.757-.013-5.165-19.348-58.818a2910 2910 0 0 1-8.142-22.949c-5.204-14.903-6.112-16.648-7.683-14.756m-107.514 5.766c-.399.858-1.569 4.233-2.601 7.5-1.033 3.266-4.636 13.814-8.008 23.439-19.675 56.163-22.076 64.025-20.358 66.648 1.567 2.392 1.843 1.742 11-25.847 20.204-60.874 21.694-65.845 21.085-70.378-.286-2.128-.59-2.499-1.118-1.362M456 299.896c0 5.199 1.864 11.314 21.311 69.905 9.157 27.589 9.433 28.239 11 25.847 1.718-2.622-.724-10.618-20.361-66.648-3.373-9.625-7.035-20.425-8.138-24-2.409-7.806-3.812-9.686-3.812-5.104m-341.679 1.42c-9.765 2.608-10.283 3.008-6.824 5.274 2.568 1.683 2.936 1.664 9.587-.478 3.804-1.225 6.916-2.615 6.916-3.088s.273-1.572.607-2.442c.778-2.028-.207-1.958-10.286.734m571.072-.734c.334.87.607 1.969.607 2.442s3.112 1.863 6.916 3.088c6.669 2.148 7.013 2.165 9.607.465 3.498-2.292 2.671-2.889-7.555-5.445-10.21-2.551-10.346-2.559-9.575-.55m-302.643 1.107c-.962.252-1.75.704-1.75 1.004s-1.12 7.604-2.488 16.231c-1.368 8.626-2.923 19.709-3.456 24.63s-2.518 19.521-4.412 32.446c-4.706 32.115-4.619 30.943-2.373 32.145 3.677 1.968 4.28.454 6.088-15.286 2.384-20.762 3.208-27.553 6.594-54.359 3.119-24.694 4.462-37.57 3.898-37.384a67 67 0 0 1-2.101.573m42.726 6.63c.366 3.949 1.973 17.531 3.571 30.181 3.386 26.806 4.21 33.597 6.594 54.359 1.808 15.74 2.411 17.254 6.088 15.286 2.246-1.202 2.333-.03-2.373-32.145-1.894-12.925-3.88-27.526-4.412-32.446-.533-4.921-2.088-16.004-3.456-24.63-1.368-8.627-2.488-15.911-2.488-16.188s-.943-.749-2.095-1.05c-2.025-.53-2.072-.312-1.429 6.633m-37.477-5.783c-.001.53-.886 7.834-1.968 16.23s-2.443 20.096-3.027 26c-.583 5.904-2.623 22.13-4.532 36.058-4.127 30.105-4.072 28.553-1.095 30.503l2.376 1.557 1.104-8.692c.608-4.781 2.037-17.917 3.177-29.192s3.161-29.276 4.492-40.002c3.109-25.059 3.272-29.628 1.135-31.766-.914-.913-1.662-1.227-1.662-.696m31.986.982c-1.717 2.069-1.443 7.845 1.489 31.48 1.331 10.726 3.352 28.727 4.492 40.002s2.569 24.411 3.177 29.192l1.104 8.692 2.376-1.557c2.975-1.949 3.026-.482-1.038-30.012-1.878-13.648-3.713-27.965-4.078-31.815-.975-10.313-5.552-46.878-5.912-47.239-.171-.17-.895.395-1.61 1.257M100.5 309c.34.55.19 1-.334 1-1.047 0-2.099 2.21-2.799 5.885-.25 1.311-1.143 3.716-1.985 5.343-2.106 4.072-1.292 4.333 1.662.533 1.351-1.738 3.919-4.69 5.706-6.56 3.823-4.001 4.088-5.743 1-6.571-3.201-.858-3.956-.772-3.25.37m13.757.369C110.71 310.487 102 318.887 102 321.191c0 1.515.351 1.606 2.469.641 1.357-.618 2.234-1.503 1.948-1.967-.287-.463.251-.546 1.195-.184 1.256.483 1.497.304.898-.666-.525-.848-.431-1.084.261-.657 1.123.695 6.274-1.181 7.341-2.673.336-.471.899-.817 1.25-.77s.638-.14.638-.415.9-1.4 2-2.5c3.667-3.667 1.172-4.81-5.743-2.631M688 309.048c0 .523.9 1.852 2 2.952s2 2.225 2 2.5.287.462.638.415.914.299 1.25.77c1.067 1.492 6.218 3.368 7.341 2.673.692-.427.786-.191.261.657-.599.97-.358 1.149.898.666.944-.362 1.482-.279 1.195.184-.286.464.591 1.349 1.948 1.967 2.118.965 2.469.874 2.469-.641 0-2.165-8.642-10.721-11.778-11.661-4.055-1.215-8.222-1.459-8.222-.482m17.75-.359c-2.602.68-2.135 2.708 1.5 6.512 1.788 1.87 4.355 4.822 5.706 6.56 2.954 3.8 3.768 3.539 1.662-.533-.842-1.627-1.735-4.032-1.985-5.343-.7-3.675-1.752-5.885-2.799-5.885-.524 0-.674-.45-.334-1 .631-1.021-.631-1.126-3.75-.311M219 327.604c-6.325 5.216-20.5 16.721-31.5 25.567-24.921 20.042-23.134 18.36-21.542 20.279 1.872 2.256 2.307 2.077 9.235-3.799 3.469-2.942 14.632-12.058 24.807-20.257 26.769-21.572 33-26.749 33-27.417 0-.327-.562-1.329-1.25-2.226-1.106-1.443-2.576-.537-12.75 7.853m358.964-7.536c-.632 1.181-.77 2.489-.307 2.908 2.767 2.501 15.919 13.264 29.343 24.013 8.525 6.827 19.693 15.922 24.818 20.212 10.082 8.438 10.31 8.555 12.224 6.249 1.592-1.919 3.433-.189-21.884-20.572-11.188-9.008-23.788-19.214-28-22.681-16.484-13.567-14.888-12.569-16.194-10.129M216.769 339.25a42304 42304 0 0 0-31.871 25.666 7356 7356 0 0 1-15.726 12.662c-.181.135.293 1.431 1.052 2.88l1.38 2.634 14.448-11.727c7.946-6.45 22.323-18.245 31.948-26.21 9.625-7.966 17.595-14.541 17.71-14.613.544-.335-1.036-4.542-1.705-4.542-.419 0-8.175 5.962-17.236 13.25m357.887-11.044c-.317 1.214-.482 2.265-.366 2.336.115.072 8.085 6.647 17.71 14.613s24.002 19.76 31.948 26.21l14.448 11.727 1.38-2.634c.759-1.449 1.233-2.745 1.052-2.88-.18-.135-7.257-5.833-15.726-12.662-54.175-43.685-49.509-40.29-50.446-36.71m-320.318 46.909a11135 11135 0 0 1-24.102 32.654c-15.694 21.166-16.472 22.443-15.654 25.703 1.113 4.431-1.046 6.981 27.924-32.972 6.381-8.8 15.166-20.889 19.522-26.864 6.552-8.988 7.746-11.19 6.911-12.75-1.672-3.123-2.316-2.495-14.601 14.229m286.723-14.229c-.835 1.56.359 3.762 6.911 12.75 4.356 5.975 13.141 18.064 19.522 26.864 28.97 39.953 26.811 37.403 27.924 32.972.818-3.26.04-4.537-15.654-25.703a11135 11135 0 0 1-24.102-32.654c-12.285-16.724-12.929-17.352-14.601-14.229m-272.346 8.169c-1.475 1.895-7.419 9.97-13.21 17.945-16.518 22.749-29.036 39.945-34.063 46.793-4.239 5.772-4.551 6.588-3.774 9.872l.847 3.581 6.56-8.873c8.318-11.251 25.106-34.348 36.25-49.873 4.738-6.6 9.484-13.125 10.546-14.501 1.663-2.151 1.765-2.912.729-5.445l-1.203-2.944zm268.577-.463c-.946 2.714-.504 3.628 6.094 12.583 3.913 5.311 13.375 18.357 21.026 28.991 7.652 10.634 16.874 23.327 20.493 28.207l6.58 8.873.845-3.572c.773-3.271.457-4.102-3.761-9.873-16.279-22.273-24.352-33.376-34.069-46.856-6.05-8.393-12.167-16.614-13.594-18.269l-2.594-3.01zm-386.813 12.694A4870 4870 0 0 0 129 394.458c-5.225 3.229-11.514 7.017-13.974 8.418-4.302 2.448-4.379 2.572-2 3.235 5.04 1.405 7.014.748 16.636-5.533 5.411-3.532 15.573-10.17 22.583-14.75 11.68-7.632 14.423-10.441 11.234-11.502-.562-.187-6.412 2.945-13 6.96m495.188-6.619c-1.66 1.66.182 3.358 12.106 11.161 35.693 23.356 33.061 21.994 39.201 20.283 2.379-.663 2.302-.787-2-3.235-2.46-1.401-8.749-5.189-13.974-8.418-32.954-20.368-34.109-21.015-35.333-19.791M145.071 393.82c-19.217 12.868-20.442 13.873-20.635 16.94l-.205 3.26 3.634-2.201C136.169 406.79 169 384.917 169 384.414c0-1.135-2.101-4.411-2.785-4.344-.393.038-9.908 6.225-21.144 13.75m496.964-11.886c-.569 1.064-1.035 2.18-1.035 2.48 0 .503 32.831 22.376 41.135 27.405l3.634 2.201-.205-3.26c-.193-3.067-1.418-4.072-20.635-16.94-22.673-15.184-21.465-14.556-22.894-11.886M.355 398.5c-.003 4.95.166 7.101.376 4.78.209-2.321.212-6.371.005-9-.206-2.629-.378-.73-.381 4.22m306.306 6.251C304 411.763 300.119 422 298.037 427.5c-3.821 10.091-5.733 15.033-16.972 43.857-5.887 15.1-6.1 15.946-4.469 17.75 2.461 2.719 2.936 2.439 4.842-2.857.941-2.613 3.228-8.575 5.082-13.25s5.687-14.575 8.518-22 6.879-18 8.996-23.5c12.923-33.575 12.476-32.18 10.926-34.048-2.368-2.854-3.525-1.279-8.299 11.299m188.379-11.299c-1.55 1.868-1.997.473 10.926 34.048 2.117 5.5 6.165 16.075 8.996 23.5s6.664 17.325 8.518 22 4.141 10.637 5.082 13.25c1.906 5.296 2.381 5.576 4.842 2.857 1.631-1.804 1.418-2.65-4.469-17.75-11.239-28.824-13.151-33.766-16.972-43.857-14.671-38.748-14.053-37.506-16.923-34.048m-178.072 7.751c-.761 2.363-2.473 6.997-3.804 10.297s-3.681 9.375-5.223 13.5-5.356 14.025-8.477 22-6.921 17.875-8.445 22a717 717 0 0 1-5.964 15.45c-2.574 6.409-2.99 8.397-2.146 10.25 2.108 4.626 1.716 5.366 13.071-24.7 2.804-7.425 6.621-17.325 8.482-22 13.96-35.063 17.822-47.161 15.725-49.258-1.781-1.781-1.877-1.707-3.219 2.461m172.728-2.419c-1.932 2.134 2.167 14.87 15.842 49.216 1.861 4.675 5.678 14.575 8.482 22 11.355 30.066 10.963 29.326 13.071 24.7.844-1.853.428-3.841-2.146-10.25a712 712 0 0 1-5.962-15.45c-3.041-8.238-10.675-28.083-14.425-37.5-2.293-5.758-8.826-22.857-11.765-30.793-1.354-3.653-1.467-3.724-3.097-1.923m-383.865 9.934c.603 1.15.453 4.776-.423 10.224-.747 4.643-1.144 8.655-.883 8.916s.475-.023.475-.632 2.511-4.773 5.579-9.254c3.069-4.481 5.319-8.407 5-8.726s-.579-.29-.579.063-1.013.269-2.25-.187c-5.863-2.16-7.904-2.279-6.919-.404m593.466-.271c-2.311.723-4.449 1.068-4.75.767-1.967-1.968.255 2.014 4.953 8.874 3.025 4.417 5.5 8.529 5.5 9.138s.214.894.475.632c.261-.261-.136-4.273-.883-8.916-.86-5.348-1.021-9.083-.44-10.192 1.068-2.036.754-2.056-4.855-.303m-581.363 3.623c-1.577 1.689-4.26 5.504-5.962 8.479s-3.517 5.67-4.033 5.989-.939 1.04-.939 1.601c0 .562 2.362-1.228 5.25-3.978s6.435-5.927 7.884-7.061c2.971-2.326 4.464-8.1 2.094-8.1-.784 0-2.716 1.382-4.294 3.07m568.855-.051c.249 1.692 1.601 3.925 3.077 5.081 1.449 1.134 4.996 4.312 7.884 7.061 2.888 2.75 5.25 4.54 5.25 3.978s-.422-1.282-.939-1.601-2.331-3.014-4.033-5.989c-5.834-10.196-12.191-15.022-11.239-8.53m-321.074 1.155c-.298 1.279-2.193 15.376-4.213 31.326s-4.904 38.113-6.409 49.25c-1.811 13.392-2.375 20.255-1.665 20.264.589.007 2.019.267 3.175.578 1.869.501 2.178.025 2.767-4.264 4.37-31.81 7.61-57.229 8.073-63.328.313-4.125 1.434-13.57 2.491-20.989s1.841-13.569 1.742-13.668c-1.705-1.706-5.495-1.177-5.961.831m74.005-1.479c-1.398.364-1.661 1.145-1.223 3.634 1.083 6.15 4.222 31.221 4.404 35.171.15 3.251 3.191 26.792 7.729 59.828.589 4.289.898 4.765 2.767 4.264 1.156-.311 2.586-.571 3.175-.578.71-.009.146-6.872-1.665-20.264-1.505-11.137-4.39-33.3-6.409-49.25-4.691-37.049-3.895-34.075-8.778-32.805m-65.189 3.558c-.989 4.391-5.48 38.48-7.015 53.247-.858 8.25-2.468 21.94-3.579 30.422-2.179 16.646-2.134 17.532.92 18.33 1.81.474 2.094-.073 2.66-5.111.349-3.102 1.926-14.866 3.504-26.141s3.341-24.775 3.916-30 1.724-15.444 2.554-22.708c1.923-16.836 1.905-17.563-.473-19.048-1.732-1.083-2.045-.956-2.487 1.009m58.052-.711c-2.311 1.715-.045 26.447 6.869 74.958 1.333 9.35 2.703 19.539 3.044 22.641.555 5.04.836 5.585 2.647 5.111 3.054-.798 3.099-1.684.92-18.33-1.11-8.482-2.695-21.947-3.523-29.922-1.972-18.99-6.448-52.042-7.339-54.19-.617-1.487-.932-1.519-2.618-.268m-228.241 27.256c-3.387 4.236-13.585 16.998-22.662 28.36l-16.504 20.659 2.246 2.11 2.246 2.11 4.964-5.769c2.73-3.172 7.176-8.693 9.881-12.268s10.107-13.011 16.452-20.969c14.124-17.716 13.297-16.362 11.885-19.461-1.584-3.475-1.517-3.516-8.508 5.228m392.808-5.228c-1.412 3.099-2.239 1.745 11.885 19.461 6.345 7.958 13.748 17.394 16.452 20.969s7.151 9.096 9.881 12.268l4.964 5.769 2.246-2.11 2.246-2.11-16.504-20.659c-9.077-11.362-19.275-24.124-22.662-28.36-6.991-8.744-6.924-8.703-8.508-5.228m-392.404 18.715c-4.815 6.168-14.129 17.965-20.699 26.215-10.949 13.75-11.949 15.354-11.996 19.25-.071 5.865.334 5.582 9.918-6.952 4.658-6.092 11.124-14.246 14.369-18.12 12.684-15.144 19.712-25.288 19.252-27.786-.243-1.316-.475-2.729-.516-3.142-.191-1.927-2.202.124-10.328 10.535m390.18-10.535c-.041.413-.273 1.826-.516 3.142-.46 2.498 6.568 12.642 19.252 27.786 3.245 3.874 9.711 12.028 14.369 18.12 9.584 12.534 9.989 12.817 9.918 6.952-.047-3.896-1.047-5.5-11.996-19.25-6.57-8.25-15.884-20.047-20.699-26.215-8.126-10.411-10.137-12.462-10.328-10.535m-324.384 52.728c-1.96 4.3-4.197 9.664-4.972 11.92-.774 2.256-4.434 11.527-8.131 20.602s-7.517 18.75-8.487 21.5-2.48 6.673-3.357 8.718c-2.025 4.721-2.098 4.411 1.304 5.597l2.9 1.011 3.493-8.663c7.072-17.537 18.767-47.595 22.389-57.542l2.505-6.879-2.041-2.041-2.041-2.041zm263.014-5.54c-1.62 1.79-1.579 2.253.778 8.726 3.609 9.91 15.317 40.001 22.374 57.499l3.493 8.663 2.9-1.011c3.402-1.186 3.329-.876 1.304-5.597-.877-2.045-2.386-5.968-3.353-8.718-4.665-13.262-24.044-60.377-25.102-61.031-.376-.232-1.453.429-2.394 1.469M159.33 499.75a1078 1078 0 0 1-7.01 10.759c-4.042 6.098-4.038 5.986-.269 7.867 2.791 1.392 3.104 1.377 3.672-.177.341-.935 2.28-4.174 4.308-7.199 6.917-10.317 8.179-13.5 6.1-15.381-2.561-2.318-2.726-2.218-6.801 4.131m484.443-4.095c-1.921 1.921-.584 5.232 6.196 15.345 2.028 3.025 3.967 6.264 4.308 7.199.568 1.554.881 1.569 3.672.177 3.769-1.881 3.773-1.769-.269-7.867a1078 1078 0 0 1-7.01-10.759c-4.034-6.285-4.456-6.536-6.897-4.095M276.017 507.75c-2.274 5.913-5.683 14.428-7.576 18.923-1.893 4.496-3.441 8.601-3.441 9.123 0 .523-.979 3.144-2.175 5.827s-4.035 9.852-6.308 15.932l-4.134 11.056 2.319 1.749c2.213 1.67 2.344 1.667 2.865-.055.301-.993 1.466-4.055 2.589-6.805s3.315-8.506 4.872-12.791 4.406-11.711 6.333-16.5c4.208-10.464 11.153-28.812 12.113-32.007.665-2.211-.784-5.202-2.521-5.202-.441 0-2.662 4.837-4.936 10.75m251.023-9.298c-.699.842-.915 2.418-.514 3.75.96 3.195 7.905 21.543 12.113 32.007 1.927 4.789 4.776 12.214 6.333 16.5s3.75 10.041 4.872 12.791c1.123 2.75 2.288 5.812 2.589 6.805.521 1.722.652 1.725 2.865.055l2.319-1.749-4.134-11.056c-2.273-6.08-5.112-13.25-6.308-15.932S545 536.319 545 535.796s-1.548-4.627-3.441-9.123-5.302-13.01-7.576-18.923c-4.229-10.996-4.847-11.823-6.943-9.298m-364.533 13.079c-3.185 5.412-5.798 10.32-5.807 10.905-.087 5.992.459 11.564 1.133 11.564.458 0 3.511-5.737 6.784-12.75 5.54-11.868 5.873-12.986 4.817-16.155l-1.135-3.405zm477.936-6.276c-.948 3.183 9.394 28.745 11.631 28.745.408 0 .931-2.587 1.163-5.75.401-5.46.149-6.23-4.995-15.25-6.716-11.776-6.624-11.685-7.799-7.745m-288.746 13.942c-.3 1.267-.844 5.453-1.21 9.303-.365 3.85-2.424 20.786-4.576 37.636-4.741 37.137-4.689 33.553-.482 33.062 3.874-.452 4.08-1.069 5.082-15.198.292-4.125.758-8.625 1.034-10 .701-3.489 7.371-55.425 7.142-55.613-2.073-1.701-6.516-1.186-6.99.81m101.522-1.487c-1.951.374-2.205.899-1.754 3.614.29 1.747 1.893 13.976 3.563 27.176 1.669 13.2 3.223 24.675 3.452 25.5s.668 5.1.974 9.5c1.017 14.623 1.219 15.243 5.117 15.698 4.207.491 4.259 4.075-.482-33.062-2.152-16.85-4.211-33.786-4.576-37.636-.366-3.85-.904-8.013-1.197-9.25-.534-2.254-.859-2.353-5.097-1.54m-93.652 15.04c-3.019 24.811-7.562 60.688-8.084 63.833-.432 2.606-.102 3.27 2.132 4.288 3.395 1.546 2.851 3.475 5.323-18.871 1.187-10.725 3.415-28.725 4.951-40 2.494-18.318 2.629-20.633 1.26-21.75-3.311-2.702-3.89-1.405-5.582 12.5m85.284-12.5c-1.369 1.117-1.234 3.432 1.26 21.75 1.536 11.275 3.764 29.275 4.951 40 2.472 22.346 1.928 20.417 5.323 18.871 2.234-1.018 2.564-1.682 2.132-4.288-.522-3.145-5.065-39.022-8.084-63.833-1.692-13.905-2.271-15.202-5.582-12.5m-202.313 48.931c-1.06 3.096-7.538 30.832-7.538 32.275 0 1.383.485 1.337 3.813-.361l3.813-1.945 3.191-14.271c1.756-7.848 2.852-14.582 2.437-14.962-1.711-1.57-5.273-2.029-5.716-.736m320.598-.104c-1.698.677-2.218 1.501-1.846 2.922.284 1.089 1.761 7.639 3.281 14.556l2.764 12.575 3.832 1.955c4.883 2.491 4.883 2.914.003-17.02-3.937-16.083-4.175-16.527-8.034-14.988M249.598 580.25c-.93 4.538-2.371 11.196-3.202 14.796-1.483 6.423-1.467 6.626.883 10.762l2.394 4.215 2.682-15.262c2.992-17.025 3.18-19.826 1.445-21.561-2.073-2.073-2.468-1.41-4.202 7.05M556.2 573.2c-1.735 1.735-1.547 4.536 1.445 21.561l2.682 15.262 2.394-4.215c2.35-4.136 2.366-4.339.883-10.762-.831-3.6-2.272-10.258-3.202-14.796-1.734-8.46-2.129-9.123-4.202-7.05M344 602.692l-2.5.391.344 18.709c.189 10.289.47 18.839.624 18.999.154.159 1.976-.71 4.048-1.933l3.769-2.224-.638-11.067c-.351-6.087-.64-13.879-.642-17.317-.004-4.411-.373-6.206-1.255-6.1-.687.082-2.375.326-3.75.542m116.995 5.441c-.002 3.502-.291 11.347-.642 17.434l-.638 11.067 3.769 2.224c2.072 1.223 3.894 2.092 4.048 1.933 1.303-1.354.791-37.794-.532-37.805-.825-.007-2.512-.285-3.75-.616-2.161-.579-2.25-.35-2.255 5.763M351.43 615.75c.885 17.887 1.321 20.357 4.168 23.615 3.358 3.843 3.27 4.46 2.192-15.365-.853-15.672-1.164-17.683-2.982-19.25-3.748-3.231-4.036-2.292-3.378 11m103.762-11c-1.818 1.567-2.129 3.578-2.982 19.25-1.078 19.825-1.166 19.208 2.192 15.365 2.847-3.258 3.283-5.728 4.168-23.615.658-13.292.37-14.231-3.378-11"/></svg>