<svg xmlns="http://www.w3.org/2000/svg" width="1840" height="219" viewBox="0 0 1840 219"><path fill-rule="evenodd" d="M44 2.555C21.018 7.491 4.93 23.971 1.857 45.724c-4.17 29.526 12.724 47.94 56.622 61.719 30.912 9.702 39.705 21.239 26.977 35.395-13.217 14.7-46 12.49-54.537-3.676-.969-1.836-1.998-3.574-2.285-3.861-.893-.893-26.825 9.034-27.381 10.481-2.056 5.36 13.198 23.111 25.292 29.43 39.354 20.564 88.397 1.222 94.401-37.229 4.268-27.333-13.925-47.357-55.067-60.61-30.228-9.736-38.601-18.378-31.966-32.989 6.384-14.057 36.19-17.485 51.354-5.906 6.103 4.66 5.391 4.915 17.39-6.228l10.5-9.75-5.777-5.391C93.057 3.742 66.677-2.315 44 2.555m1122 0c-22.982 4.936-39.07 21.416-42.143 43.169-4.17 29.526 12.724 47.94 56.622 61.719 30.912 9.702 39.705 21.239 26.977 35.395-13.217 14.7-46 12.49-54.537-3.676-.969-1.836-1.998-3.574-2.285-3.861-.893-.893-26.825 9.034-27.381 10.481-2.056 5.36 13.198 23.111 25.292 29.43 39.354 20.564 88.397 1.222 94.401-37.229 4.268-27.333-13.925-47.357-55.067-60.61-30.228-9.736-38.601-18.378-31.966-32.989 6.384-14.057 36.19-17.485 51.354-5.906 6.103 4.66 5.391 4.915 17.39-6.228l10.5-9.75-5.777-5.391C1215.057 3.742 1188.677-2.315 1166 2.555m-651 1c-22.982 4.936-39.07 21.416-42.143 43.169-4.17 29.526 12.724 47.94 56.622 61.719 30.912 9.702 39.705 21.239 26.977 35.395-13.217 14.7-46 12.49-54.537-3.676-.969-1.836-1.998-3.574-2.285-3.861-.893-.893-26.825 9.034-27.381 10.481-2.056 5.36 13.198 23.111 25.292 29.43 39.354 20.564 88.397 1.222 94.401-37.229 4.268-27.333-13.925-47.357-55.067-60.61-30.228-9.736-38.601-18.378-31.966-32.989 6.384-14.057 36.19-17.485 51.354-5.906 6.103 4.66 5.391 4.915 17.39-6.228l10.5-9.75-5.777-5.391C564.057 4.742 537.677-1.315 515 3.555m-387.536.685c-.264.693-.364 40.86-.222 89.26l.258 88h117.691l12.654-20.201 12.655-20.201 28.25-.049L327 141v19.3c0 13.678.35 19.65 1.2 20.5 1.799 1.799 27.175 1.658 28.683-.159.823-.991 1.059-25.143.872-89.25L357.5 3.5l-18-.216-18-.216L271 83.149l-50.5 80.082-.314-4.84c-.504-7.765 1.156-7.391-32.828-7.391h-30.397l.269-21.75.27-21.75 24-.5 24-.5v-29l-24-.5-24-.5-.269-21.736-.27-21.735 31.27-.265L219.5 32.5v-29l-45.778-.26c-36.088-.205-45.879.006-46.258 1m1122 0c-.264.693-.364 40.86-.222 89.26l.258 88h92l.279-13.863c.188-9.369-.094-14.312-.872-15.25-.936-1.127-6.846-1.387-31.549-1.387h-30.397l.269-21.75.27-21.75 24-.5 24-.5v-29l-24-.5-24-.5-.269-21.736-.27-21.735 31.27-.265 31.269-.264v-29l-45.778-.26c-36.088-.205-45.879.006-46.258 1m96.143.342c-1.257 3.275-.679 174.946.593 176.218 1.666 1.666 26.934 1.666 28.6 0 .889-.889 1.2-10.489 1.2-37V108h26.726l19.064 36.75 19.065 36.75 33.948.25 33.949.251 49.3-83.751c27.115-46.062 50.458-85.55 51.874-87.75l2.574-4 .5 87.5.5 87.5h92l.279-13.863c.188-9.369-.094-14.312-.872-15.25-.936-1.127-6.846-1.387-31.549-1.387h-30.397l.269-21.75.27-21.75 24-.5 24-.5v-29l-24-.5-24-.5-.269-21.736-.27-21.735 31.27-.265 31.269-.264v-29l-45.385-.26c-30.837-.177-45.794.079-46.661.798-.888.737-1.473.741-1.924.011-.41-.663-6.603-1.042-16.839-1.03l-16.191.019-37 62.902-37 62.902-.5-62.671-.5-62.671h-30l-.5 86.22-.5 86.219-18.5-35.67c-10.175-19.618-18.631-35.971-18.79-36.339-.16-.369 1.917-2.086 4.614-3.817 38.721-24.847 29.956-83.968-14.192-95.723-8.156-2.171-79.183-2.001-80.025.192m365 0c-1.257 3.275-.679 174.946.593 176.218 1.666 1.666 26.934 1.666 28.6 0 .889-.889 1.2-10.489 1.2-37V108h26.726l19.063 36.75 19.064 36.75 15.957.274c13.905.239 16.037.067 16.575-1.335.385-1.004-6.624-15.569-18.634-38.722-10.588-20.413-19.382-37.416-19.541-37.785-.16-.37 1.917-2.088 4.614-3.819 38.721-24.847 29.956-83.968-14.192-95.723-8.156-2.171-79.183-2.001-80.025.192M598.461 5.25c-.263.688-.361 40.85-.219 89.25l.258 88 13.863.279c9.369.188 14.312-.094 15.25-.872 1.136-.943 1.387-7.653 1.387-37.029V109h66.975l.263 36.75.262 36.75h29V4.5h-29l-.262 36.75-.263 36.75H629V42.2c0-26.511-.311-36.111-1.2-37-1.726-1.726-28.68-1.68-29.339.05m140.003-.01c-.264.693-.364 40.86-.222 89.26l.258 88h92l.279-13.863c.188-9.369-.094-14.312-.872-15.25-.936-1.127-6.846-1.387-31.549-1.387h-30.397l.269-21.75.27-21.75 24-.5 24-.5v-29l-24-.5-24-.5-.269-21.736-.27-21.735 31.27-.265L830.5 33.5v-29l-45.778-.26c-36.088-.205-45.879.006-46.258 1m99.007-.018c-.268.703-.371 40.878-.229 89.278l.258 88h92l.279-13.863c.188-9.369-.094-14.312-.872-15.25-.936-1.127-6.842-1.387-31.523-1.387h-30.371l-.257-73.75L866.5 4.5l-14.271-.278c-10.865-.211-14.387.028-14.758 1m99 0c-.268.703-.371 40.878-.229 89.278l.258 88h92l.279-13.863c.188-9.369-.094-14.312-.872-15.25-.936-1.127-6.842-1.387-31.523-1.387h-30.371l-.257-73.75L965.5 4.5l-14.271-.278c-10.865-.211-14.387.028-14.758 1M1376 55v22h21.04c18.74 0 21.445-.209 24.75-1.908 14.234-7.322 16.451-25.444 4.437-36.275-5.726-5.163-9.148-5.805-30.977-5.811L1376 33zm365 0v22h21.04c18.74 0 21.445-.209 24.75-1.908 14.234-7.322 16.451-25.444 4.437-36.275-5.726-5.163-9.148-5.805-30.977-5.811L1741 33zM308.737 80.963c-9.756 15.38-17.737 28.205-17.737 28.5s8.1.537 18 .537h18V81.5c0-15.675-.119-28.5-.263-28.5s-8.245 12.583-18 27.963m56.474 108.226c-1.676 1.676-1.686 26.936-.011 28.611 1.399 1.399 80.399 1.741 82.579.358.963-.611 1.209-4.366 1-15.235L448.5 188.5l-41.039-.261c-31.086-.198-41.333.033-42.25.95"/></svg>