<svg xmlns="http://www.w3.org/2000/svg" width="512" height="512" viewBox="0 0 512 512"><path fill-rule="evenodd" d="M239 45.609c-20.569 3.746-29.406 6.53-43.375 13.663-34.325 17.526-57.938 49.885-65.659 89.978l-1.108 5.75-6.179.004c-31.379.02-64.542 16.739-84.123 42.409-49.854 65.359-12.208 159.884 68.944 173.112 14.041 2.289 46.953 2.048 51.516-.377 10.352-5.501 11.535-19.808 2.226-26.915l-3.58-2.733-23.081-.617c-25.713-.688-29.827-1.428-43.081-7.751-50.882-24.271-58.422-95.337-13.709-129.21 17.377-13.163 39.505-18.541 60.937-14.809 14.091 2.454 20.098-3.226 21.507-20.333 4.794-58.25 47.699-95.259 105.026-90.595 48.582 3.953 82.277 39.241 86.504 90.595 1.409 17.107 7.416 22.787 21.507 20.333 69.972-12.185 118.247 69.422 73.285 123.887-16.515 20.006-33.694 26.934-69.138 27.883l-23.081.617-3.58 2.733c-9.309 7.107-8.126 21.414 2.226 26.915 4.634 2.463 37.894 2.68 51.635.338 81.335-13.862 118.664-107.734 68.825-173.073-19.581-25.67-52.744-42.389-84.123-42.409l-6.179-.004-1.108-5.75C371.977 97.029 335.174 58.828 284 47.492c-7.267-1.61-39.171-2.945-45-1.883m65.984 136.243c-7.25 3.853-10.407 12.133-7.514 19.708 4.936 12.926 22.049 13.818 28.28 1.474 6.824-13.519-7.565-28.197-20.766-21.182M193.5 237.425c-1.65.74-13.194 11.635-25.654 24.21-21.763 21.965-22.682 23.052-23.362 27.603-1.776 11.896 10.129 21.901 21.098 17.731 1.491-.567 6.238-4.463 10.548-8.657l7.836-7.626.267 83.584c.264 82.65.29 83.615 2.329 86.345 7.209 9.655 19.667 9.655 26.876 0 2.039-2.73 2.065-3.695 2.329-86.345l.267-83.584 7.836 7.626c4.31 4.194 9.057 8.09 10.548 8.657 11.918 4.531 24.46-7.459 20.56-19.654-1.47-4.597-43.485-47.671-48.696-49.924-4.012-1.734-8.871-1.722-12.782.034m112-.069c-3.704 1.715-7.025 5.243-8.433 8.959-.724 1.911-1.067 29.182-1.067 84.888v82.073l-8.397-8.061c-7.299-7.008-8.996-8.151-12.988-8.75-10.479-1.571-19.698 7.726-18.141 18.297.674 4.573 1.522 5.563 24.362 28.425 33.142 33.175 29.151 33.176 62.334-.013 22.864-22.868 23.693-23.835 24.362-28.412 1.544-10.576-7.671-19.868-18.147-18.297-3.991.598-5.689 1.742-12.972 8.733l-8.379 8.045-.267-83.548c-.264-82.615-.29-83.58-2.329-86.31-4.838-6.48-13.382-9.063-19.938-6.029"/></svg>