<svg xmlns="http://www.w3.org/2000/svg" width="512" height="512" viewBox="0 0 512 512"><path fill-rule="evenodd" d="M229.314 11.923C224.686 14.784 224 16.791 224 27.466c0 6.809-.363 9.706-1.25 9.974-11.972 3.616-20.014 6.69-28.109 10.747l-9.858 4.94-7.285-7.063c-11.877-11.517-13.286-11.041-36.248 12.221L125 74.747v5.133c0 4.977.207 5.35 6.832 12.297l6.831 7.164-4.662 9.157c-2.564 5.036-6.148 13.695-7.965 19.242l-3.303 10.086-10.451.337c-10.366.334-10.473.363-13.366 3.603L96 145.032v24.533c0 32.444.544 33.435 18.342 33.435h8.405l3.22 9.75c1.771 5.362 5.41 14.01 8.086 19.216l4.866 9.466-6.959 7.177c-6.647 6.855-6.96 7.393-6.96 11.971v4.794l17.707 17.807c22.436 22.561 23.239 22.798 35.938 10.604l6.444-6.188 8.253 4.263c4.539 2.345 13.181 5.953 19.205 8.02l10.953 3.757.285 10.139c.462 16.47 1.832 17.202 32.215 17.202 30.403 0 31.754-.724 32.215-17.256l.285-10.194 9.93-3.228c5.461-1.776 14.126-5.339 19.254-7.919l9.325-4.69 6.395 6.141c12.643 12.141 13.467 11.896 35.889-10.651L387 265.374v-4.794c0-4.578-.313-5.116-6.96-11.971l-6.959-7.177 4.866-9.466c2.676-5.206 6.315-13.854 8.086-19.216l3.22-9.75h8.405c17.798 0 18.342-.991 18.342-33.435v-24.533l-2.916-3.266c-2.893-3.24-3-3.269-13.366-3.603l-10.451-.337-3.303-10.086c-1.817-5.547-5.401-14.206-7.965-19.242l-4.662-9.157 6.831-7.164C386.793 85.23 387 84.857 387 79.88v-5.133l-16.25-16.462c-22.96-23.26-24.372-23.737-36.242-12.227l-7.279 7.058-9.096-4.656c-5.003-2.561-13.717-6.154-19.365-7.984L288.5 37.148l-.5-10.556c-.468-9.883-.676-10.732-3.271-13.324l-2.771-2.768-24.729-.274c-23.128-.256-24.935-.146-27.915 1.697M245.5 61.586c-60.537 8.603-101.202 55.962-98.19 114.355 4.484 86.928 104.052 133.417 174.218 81.344 68.505-50.842 52.577-159.383-27.775-189.264-13.156-4.893-36.861-8.054-48.253-6.435m-4 12.843c-19.957 3.406-40.365 13.411-51.863 25.424l-2.862 2.991 4.362 2.191c12.015 6.033 11.97 12.756-.229 34.11-5.389 9.435-5.511 11.918-.749 15.254 6.193 4.338 12.055 1.458 19.779-9.715 9.709-14.045 15.784-14.269 35.161-1.296 10.791 7.224 10.621 7.255 16.38-3.005 6.718-11.968 6.869-14.955 1.44-28.383-9.893-24.467-4.266-32.239 19.53-26.978C291.852 87.1 297 87.525 297 86.223c0-8.252-33.965-15.47-55.5-11.794m66.311 17.578c-3.878 6.757-13.509 8.311-28.482 4.595-11.12-2.758-11.031-2.939-5.383 10.988 7.872 19.41 7.773 21.115-2.262 38.82-9.802 17.293-15.075 18.786-30.523 8.643-16.9-11.098-16.615-11.065-22.145-2.578-9.952 15.276-23.255 19.927-34.917 12.209-12.005-7.944-12.575-16.163-2.313-33.326 8.553-14.304 8.459-13.676 2.464-16.51-2.613-1.235-5.042-2.404-5.398-2.596-.981-.531-9.326 13.405-12.283 20.511-5.594 13.445-8.597 32.91-7.143 46.3l.699 6.437 9.187 2.23c17.41 4.227 28.877 11.693 32.207 20.969 3.001 8.361 10.126 13.388 22.481 15.861l3.5.7-4.75-5.087c-5.428-5.813-5.951-8.665-2.358-12.842 6.092-7.083 24.534-3.651 47.108 8.767 21.557 11.859 25.955 13.906 32.271 15.018 8.165 1.439 10.171 3.676 11.051 12.326l.678 6.66 6.738-5.563c7.479-6.175 15.59-15.568 20.463-23.698 5.028-8.388 5.083-8.841 1.066-8.841-14.086 0-35.252-24.046-35.21-40 .025-9.366 3.347-15.02 14.313-24.359 4.34-3.696 3.988-6.18-2.809-19.809-7.223-14.484-6.905-21.479 1.217-26.751 4.283-2.78 4.052-3.351-3.567-8.822l-4.281-3.074zm21.689 17.484c-.55.184-2.238.607-3.75.941-3.869.853-3.569 2.718 2.422 15.04 8.472 17.424 7.829 24.323-3.051 32.772-5.793 4.499-9.121 9.568-9.121 13.893 0 6.358 11.657 22.117 19.21 25.97 5.023 2.563 6.165 2.095 8.661-3.548 1.776-4.016 3.408-5.236 5.764-4.309 4.58 1.802 4.055-31.428-.753-47.703-3.162-10.702-15.516-33.835-17.874-33.468-.279.043-.958.229-1.508.412M36.218 180.663c-7.414 3.654-6.579.379-17.305 67.837-12.927 81.305-15.969 72.639 48.088 137 44.064 44.272 46.427 47.049 47.654 55.997l.617 4.503h108.681l-.54-25.75c-.897-42.808-1.602-44.584-28.327-71.4-20.523-20.593-23.406-22.577-39.656-27.284l-8.93-2.587-27-26.959c-21.94-21.907-27.82-27.246-31.376-28.49C73.342 258.36 58 269.036 58 284.492c0 9.486 1.248 11.165 29.043 39.051 28.272 28.366 29.474 30.106 23.506 34.017-3.882 2.543-4.683 1.896-33.208-26.811-24.704-24.862-27.262-27.756-29.208-33.037-4.502-12.214-1.911-26.714 6.372-35.661l4.213-4.551 1.236-33.255c1.196-32.16 1.173-33.378-.686-36.961-3.722-7.171-15.228-10.476-23.05-6.621m422.859.548c-8.428 4.514-8.458 4.699-7.019 43.034l1.248 33.255 4.293 4.798c8.292 9.267 10.761 23.222 6.268 35.414-1.946 5.281-4.504 8.175-29.208 33.037-28.525 28.707-29.326 29.354-33.208 26.811-5.968-3.911-4.766-5.651 23.506-34.017C452.752 295.657 454 293.978 454 284.492c0-15.456-15.342-26.132-30.124-20.962-3.556 1.244-9.436 6.583-31.376 28.49l-27 26.959-8.93 2.587c-16.25 4.707-19.133 6.691-39.656 27.284-26.738 26.828-27.446 28.615-28.307 71.4l-.519 25.75h108.64l.617-4.503c1.227-8.948 3.59-11.725 47.654-55.997 53.85-54.105 55.525-56.551 55.481-81-.022-12.495-15.33-111.175-18.191-117.27-3.619-7.707-14.695-10.58-23.212-6.019m-294.116 22.177c9.879 28.714 35.683 52.228 66.755 60.832 17.963 4.974 48.224 2.463 63.356-5.257l3.928-2.004v-13.641l-5.25-1.183c-2.887-.651-10.65-4.113-17.25-7.693-16.913-9.174-33.473-17.262-37-18.071l-3-.688 4.25 4.636c5.67 6.186 5.446 9.977-.78 13.197-15.939 8.242-42.58-1.856-48.588-18.417-2.497-6.881-10.414-12.178-23.27-15.57l-4.925-1.299zm-56.763 256.285C102.885 462.291 102 465.193 102 480c0 23.696-5.205 22 67.518 22 71.887 0 66.482 1.749 66.482-21.514 0-15.432-.856-18.241-6.357-20.851-5.216-2.475-116.417-2.44-121.445.038m174 0c-5.351 2.637-6.198 5.483-6.198 20.813 0 23.263-5.405 21.514 66.482 21.514 72.723 0 67.518 1.696 67.518-22 0-14.907-.895-17.773-6.357-20.365-5.216-2.475-116.417-2.44-121.445.038"/></svg>