<svg xmlns="http://www.w3.org/2000/svg" width="512" height="512" viewBox="0 0 512 512"><path fill-rule="evenodd" d="M30.666 17.074C4.118 26.206-7.709 56.553 5.688 81.167c16.78 30.831 62.719 30.379 78.998-.777l2.814-5.385 25.75-.003L139 75v36.797l-16.25 5.99c-8.937 3.295-22.957 8.141-31.155 10.769-16.863 5.405-20.854 8.006-22.698 14.785-1.569 5.772-.451 55.059 1.535 67.659.824 5.225 1.513 10.063 1.533 10.75.027.973-6.633 1.25-30.064 1.25-25.699 0-30.599.237-33.52 1.623-7.462 3.541-10.45 12.924-6.406 20.119 4.333 7.71 4.257 7.695 42.463 8.258l33.938.5 2.163 8.5c1.874 7.364 7.674 26.786 9.138 30.602.396 1.031-4.249 1.355-22.84 1.596-22.391.29-23.466.394-26.509 2.565-6.687 4.769-7.925 14.997-2.585 21.344 4.731 5.622 6.436 5.893 37.094 5.893h27.902l2.693 6.25c6.509 15.101 22.231 41.686 36.252 61.301L149.868 403h-62.38l-2.406-5.25c-3.154-6.884-12.992-16.645-20.194-20.036-39.675-18.679-79.577 22.734-59.224 61.466 16.328 31.072 62.5 31.222 78.512.256l3.324-6.429 43.904-.003 43.904-.004 13.596 13.257C218.533 475.148 247.427 497 256 497c8.532 0 37.827-22.147 67.096-50.725L336.692 433l43.904.004 43.904.003 3.364 6.507c8.387 16.218 27.967 25.808 46.281 22.668 17.788-3.051 33.905-18.135 36.462-34.128.361-2.254 1.047-4.34 1.524-4.635s.869-3.237.869-6.537-.394-5.757-.875-5.459c-.481.297-1.171-1.31-1.533-3.572-2.377-14.868-17.534-30.063-33.704-33.79-19.571-4.512-41.945 6.201-50.107 23.992L424.512 403h-62.38l8.184-11.449c14.021-19.615 29.743-46.2 36.252-61.301l2.693-6.25h27.902c30.658 0 32.363-.271 37.094-5.893 5.34-6.347 4.102-16.575-2.585-21.344-3.043-2.171-4.121-2.275-26.422-2.564-12.788-.166-23.25-.494-23.25-.729s1.15-3.853 2.555-8.038 4.05-13.083 5.878-19.771l3.323-12.161 33.872-.5c37.941-.56 38.364-.64 42.061-7.93.996-1.963 2.148-3.72 2.561-3.903.413-.184.75-2.123.75-4.309s-.355-3.757-.788-3.489-1.368-.825-2.078-2.429c-3.2-7.228-4.103-7.407-39.005-7.731l-31.372-.291.628-3.923c3.38-21.136 4.958-67.621 2.585-76.163-1.71-6.158-6.323-9.177-21.153-13.846-7.325-2.305-21.305-7.155-31.067-10.777L373 111.623V75l25.75.002 25.75.003 2.814 5.385c16.691 31.944 63.604 31.477 79.73-.794 1.648-3.298 3.271-7.716 3.608-9.818.336-2.102 1.002-4.064 1.479-4.359s.869-3.462.869-7.037-.394-6.257-.875-5.959c-.481.297-1.147-1.161-1.48-3.241s-1.953-6.48-3.601-9.778c-16.255-32.529-62.732-32.734-79.991-.353L423.883 45h-35.294c-47.774 0-45.585-1.548-45.587 32.25-.001 11.412-.234 20.75-.517 20.75-1.372 0-25.217-12.559-34.66-18.254-15.319-9.241-25.829-17.016-36.34-26.885-13.932-13.082-17.038-13.082-30.97 0-10.511 9.869-21.021 17.644-36.34 26.885C194.732 85.441 170.887 98 169.515 98c-.283 0-.516-9.338-.517-20.75-.002-33.798 2.187-32.25-45.587-32.25H88.117l-3.157-5.925C74.484 19.421 51.233 9.999 30.666 17.074M242 145.555c-28.178 6.052-48.349 30.643-49.731 60.629l-.538 11.685-2.872 1.189c-4.167 1.726-10.84 8.741-13.263 13.942-2.038 4.376-2.096 5.849-2.096 53.5v49l2.811 5.724c1.546 3.149 4.676 7.321 6.956 9.273 7.6 6.505 7.575 6.503 72.733 6.503s65.133.002 72.733-6.503c2.28-1.952 5.41-6.124 6.956-9.273l2.811-5.724.316-44.33c.416-58.407-.273-62.002-13.479-70.355l-5.241-3.315-.048-8.59c-.233-41.638-37.67-72.027-78.048-63.355m4.5 29.784c-15.037 4.981-23.607 16.396-24.332 32.411l-.373 8.25h68.41l-.373-8.25c-1.037-22.928-22.805-39.21-43.332-32.411m-42.825 71.319c-.371.371-.675 18.6-.675 40.509V327h106.023l-.262-40.25-.261-40.25-52.075-.259c-28.64-.142-52.378.045-52.75.417m48.009 20.799c-8.086 2.866-10.684 7.621-10.684 19.551 0 15.973 9.984 24.122 22.026 17.979 9.621-4.909 11.435-26.92 2.853-34.622-2.128-1.91-3.809-2.647-8.879-3.892-.825-.203-3.217.24-5.316.984"/></svg>