<svg xmlns="http://www.w3.org/2000/svg" width="512" height="512" viewBox="0 0 512 512"><path fill-rule="evenodd" d="M456.487 16.799C434.784 24.303 423.798 44.196 428 68.377c.492 2.832-.058 3.209-34.747 23.856l-35.247 20.979-3.707-3.255c-18.264-16.036-48.32-11.57-62.897 9.344l-1.952 2.802-31.253-15.302L226.945 91.5l.404-3c2.012-14.959-8.879-33.72-23.82-41.03-30.487-14.916-66.917 11.956-60.543 44.66.682 3.504 1.302 7.321 1.377 8.483.109 1.676-8.198 8.338-40.104 32.164l-40.241 30.05-3.899-1.884C32.87 147.778.5 168.441.5 199c0 46.191 61.002 59.763 80.903 18 3.076-6.455 3.933-17.189 2.422-30.328-.306-2.661 2.072-4.617 40.158-33.041l40.482-30.214 6.518 2.383c12.737 4.656 30.15 1.894 39.879-6.326l3.362-2.84 35.888 17.922C270.182 144.578 286 153.061 286 153.801c0 3.024 5.483 12.566 10.163 17.687 24.844 27.183 69.615 11.418 73.434-25.857l.67-6.541 37.833-22.545C428.908 104.145 446.344 94 446.846 94s3.423 1.15 6.493 2.555c27.693 12.678 60.965-11.538 58.37-42.485-2.278-27.17-30.11-45.955-55.222-37.271m-19.844 169.229c-3.48 1.043-6.382 3.566-8.245 7.17-2.624 5.074-2.025 294.051.618 298.328 3.864 6.253 5.257 6.474 40.635 6.47 36.094-.004 35.762.062 40.944-8.146l2.665-4.223-.709-144.563c-.8-163.028-.044-149.458-8.571-153.814-4.29-2.192-5.177-2.248-34.442-2.164-16.521.047-31.324.471-32.895.942M148.898 216.27c-7.432 4.965-6.895-5.924-6.895 139.73s-.537 134.765 6.895 139.73c4.941 3.301 66.463 3.567 71.803.31 7.34-4.475 6.799 6.673 6.799-140.04s.541-135.565-6.799-140.04c-5.34-3.257-66.862-2.991-71.803.31m142.401 56.69c-7.27 4.432-6.799-3.293-6.799 111.54s-.471 107.108 6.799 111.54c5.34 3.257 66.862 2.991 71.803-.31 7.358-4.916 6.895 2.563 6.895-111.23s.463-106.314-6.895-111.23c-4.941-3.301-66.463-3.567-71.803-.31M6.873 329.684C.714 333.506 1 329.437 1 413.269c0 85.621-.531 79.336 7.039 83.251 4.416 2.284 64.695 2.174 69.544-.126 7.851-3.726 7.417 1.153 7.417-83.312 0-82.975.293-79.103-6.299-83.122-4.507-2.749-67.454-2.991-71.828-.276"/></svg>