<svg xmlns="http://www.w3.org/2000/svg" width="512" height="512" viewBox="0 0 512 512"><path fill-rule="evenodd" d="M57.45 33.388c-12.844 5.673-11.901 25.764 1.393 29.659 7.501 2.198 74.534.811 77.773-1.609 9.654-7.211 9.654-19.665 0-26.876-3.538-2.644-73.49-3.681-79.166-1.174m336.05.005c-5.324 2.399-7.052 5.575-21.544 39.607-7.847 18.425-14.575 33.856-14.953 34.291-.377.435-3.87-1.045-7.762-3.289-30.535-17.605-78.094-28.222-87.282-19.485-6.312 6.001-5.959.534-5.959 92.285v83.902l2.274 3.374c1.25 1.856 3.792 4.398 5.648 5.648l3.374 2.274h83.966c93.667 0 87.837.426 93.238-6.818 2.852-3.824 2.677-18.124-.392-32.182-8.154-37.349-24.275-67.543-50.722-95l-10.113-10.5 13.581-31.709 13.581-31.709 29.711-.291c28.205-.276 29.851-.396 32.471-2.353 9.653-7.212 9.652-19.665-.001-26.876-3.544-2.648-73.54-3.682-79.116-1.169M57.45 81.407c-9.37 4.081-12.318 16.842-5.707 24.7 4.744 5.637 6.383 5.893 37.72 5.893h28.527l9.505 18.99c5.228 10.445 9.505 19.173 9.505 19.396s-2.363 1.896-5.25 3.718C35.397 214.89 19.373 345.922 98.397 426.846c84.582 86.617 228.489 63.976 283.033-44.531 13.396-26.65 21.047-62.8 15.008-70.919-5.537-7.445 1.441-6.838-84.938-7.396-86.369-.558-79.387.049-84.938-7.384-2.031-2.719-2.07-3.943-2.562-80.116-.562-86.929.112-79.736-7.99-85.25-5.294-3.603-19.04-2.42-39.783 3.424-5.101 1.437-9.438 2.435-9.639 2.219s-5.993-11.643-12.87-25.393c-12.511-25.012-14.767-28.438-20.033-30.433-4.405-1.669-72.317-1.367-76.235.34m368-.03c-12.845 5.719-11.906 25.739 1.393 29.683 7.003 2.077 42.51.819 45.775-1.622 9.651-7.214 9.651-19.663 0-26.876-3.54-2.646-41.729-3.605-47.168-1.185m-32 320.011c-12.844 5.673-11.901 25.764 1.393 29.659 7.501 2.198 74.534.811 77.773-1.609 9.654-7.211 9.654-19.665 0-26.876-3.538-2.644-73.49-3.681-79.166-1.174m0 48c-12.844 5.673-11.901 25.764 1.393 29.659 7.501 2.198 74.534.811 77.773-1.609 9.654-7.211 9.654-19.665 0-26.876-3.538-2.644-73.49-3.681-79.166-1.174"/></svg>