<svg xmlns="http://www.w3.org/2000/svg" width="512" height="512" viewBox="0 0 512 512"><path fill-rule="evenodd" d="M50 1.555C-7.694 13.946-17.809 94.702 35.064 120.799c15.507 7.654 1.924 7.166 199.436 7.166 197.332 0 184.052.472 199.5-7.09C487.389 94.74 476.868 13.712 418.5 1.499 408.278-.639 59.972-.587 50 1.555m4 43.695C40.023 52.716 39.286 72.946 52.661 82c8.701 5.891 22.66 2.814 29.105-6.415 4.018-5.752 4.018-17.418 0-23.17C75.411 43.314 63.418 40.22 54 45.25m86.5-.646c-21.491 11.705-13.035 42.181 11.147 40.175 19.32-1.602 25.651-26.907 9.56-38.204-5.314-3.731-15.667-4.717-20.707-1.971m-91.988 128.01c-56.8 13.731-65.588 92.588-13.261 119.004 14.072 7.104 9.587 6.777 97.885 7.142l79.636.329.457-20.795c.743-33.783 9.052-50.638 30.629-62.137 5.229-2.787 119.753-42.362 128.642-44.454 1.1-.259-70-.486-158-.504-136.299-.028-160.887.182-165.988 1.415m9.247 41.756c-26.254 9.741-14.391 48.042 12.562 40.558 12.927-3.59 18.906-21.022 11.049-32.213-5.326-7.587-15.737-11.266-23.611-8.345m86.477-.391c-20.065 4.759-21.263 34.922-1.62 40.791 21.667 6.474 37.33-18.919 21.46-34.789-6.003-6.003-12.082-7.842-19.84-6.002m222.264 4.393c-106.54 35.913-106.255 35.801-108.986 42.953-2.707 7.087-1.714 106.428 1.191 119.175 11.48 50.378 50.365 95.097 108.764 125.081 15.642 8.031 16.8 8.086 30.392 1.439 51.017-24.948 92.216-67.256 106.651-109.52 6.674-19.539 6.796-20.878 7.225-78.937.433-58.475.365-59.218-5.779-63.593-2.922-2.081-113.903-40.351-120.099-41.415-2.499-.429-7.457.805-19.359 4.817m62.507 82.167c-5.228 2.348-6.358 3.623-30.742 34.685l-22.549 28.724-4.608-3.896c-2.534-2.143-7.533-6.4-11.108-9.461-8.547-7.317-12.183-9.011-19.225-8.955-15.518.124-25.873 18.06-18.127 31.4 2.561 4.41 42.844 38.837 48.251 41.237 5.293 2.349 12.005 1.996 17.736-.933 4.029-2.059 62.906-75.136 67.548-83.84 8.966-16.81-9.772-36.779-27.176-28.961M52.5 342.474c-59.64 11.022-71.466 93.116-17.265 119.857 13.968 6.892 9.39 6.638 119.952 6.654l99.687.015-7.395-10.563c-22.473-32.1-34.412-70.266-34.469-110.187L213 341l-76.75.09c-58.181.069-78.444.404-83.75 1.384m3.5 43.12c-21.128 9.152-14.925 40.739 8 40.739 18.198 0 27.719-21.333 15.653-35.076-5.864-6.678-15.811-9.059-23.653-5.663m86.01-.278c-4.781 1.522-11.283 8.288-12.78 13.3-6.482 21.693 18.921 37.329 34.818 21.432 16.069-16.07-.188-41.691-22.038-34.732"/></svg>