<svg xmlns="http://www.w3.org/2000/svg" width="512" height="512" viewBox="0 0 512 512"><path fill-rule="evenodd" d="M231.5 2.086C76.828 17.946-27.311 162.276 6.582 313.805 37.134 450.39 174.511 536.351 312.805 505.418 427.766 479.703 511 375.167 511 256.5 511 106.582 379.526-13.092 231.5 2.086M113.981 152c-.011.275-.009 44.279.003 97.787l.023 97.286 49.246-.054c55.194-.06 55.765-.118 70.538-7.162 20.474-9.763 30.428-27.317 30.541-53.857.116-27.435-12.051-46-30.147-46-3.466 0-1.726-1.366 3.715-2.916 18.656-5.316 26.319-35.745 15.026-59.671-5.432-11.509-17.373-20.69-31.031-23.858-6.23-1.444-107.864-2.909-107.914-1.555M303 172v9h78v-18h-78zm-148 33.942V227h26.599c22.262 0 27.146-.26 29.956-1.593 9.563-4.538 11.098-28.614 2.358-36.992l-3.041-2.915-27.936-.308-27.936-.308zm181-5.296c-36.878 3.383-60.246 30.382-62.67 72.41-2.664 46.171 24.066 75.065 69.67 75.311 36.971.2 58.96-15.19 62.53-43.762l.7-5.605h-16.115c-15.578 0-16.115.068-16.115 2.05 0 14.075-27.684 22.835-45.511 14.401-9.699-4.588-14.911-13.03-16.177-26.201l-.601-6.25H407l-.008-10.75c-.034-48.36-27.072-75.632-70.992-71.604m-1.604 27.712c-9.398 3.079-16.538 10.247-20.444 20.525C310.608 257.686 308.238 257 342 257h30v-2.965c0-18.012-19.777-31.516-37.604-25.677M154 283.499v26.586l29.409-.292 29.409-.293 3.841-3.051c12.628-10.031 12.184-37.566-.745-46.126l-4.263-2.823-28.826-.293-28.825-.294z"/></svg>