<svg xmlns="http://www.w3.org/2000/svg" width="512" height="512" viewBox="0 0 512 512"><path fill-rule="evenodd" d="M134.251 70.051c-13.774 2.446-21.616 7.536-40.147 26.059-19.324 19.313-24.568 29.454-24.508 47.39.073 21.957 2.355 25.411 45.931 69.5 21.235 21.485 36.619 37.837 37.396 39.75 2.303 5.671.469 7.939-37.396 46.25-43.845 44.362-46.002 47.654-45.858 70 .119 18.358 4.798 27.091 25.676 47.919 20.687 20.639 29.725 25.424 48.066 25.447 21.977.029 25.429-2.248 69.589-45.893 38.311-37.865 40.579-39.699 46.25-37.396 1.913.777 18.265 16.161 39.75 37.396 44.16 43.645 47.612 45.922 69.589 45.893 18.338-.023 28.014-5.13 48.183-25.427 20.779-20.912 25.441-29.655 25.559-47.939.144-22.346-2.013-25.638-45.858-70-21.235-21.485-36.619-37.837-37.396-39.75-2.303-5.671-.469-7.939 37.396-46.25 43.845-44.362 46.002-47.654 45.858-70-.118-18.28-4.95-27.335-25.689-48.151-20.003-20.076-29.988-25.314-48.142-25.253-21.957.073-25.411 2.355-69.5 45.931-21.485 21.235-37.837 36.619-39.75 37.396-5.671 2.303-7.939.469-46.25-37.396-38.457-38.009-41.097-40.162-53.809-43.895-6.916-2.031-18.331-2.755-24.94-1.581"/></svg>