<svg xmlns="http://www.w3.org/2000/svg" width="512" height="512" viewBox="0 0 512 512"><path fill-rule="evenodd" d="M237 .598C98.186 12.798-5.077 128.399.369 265.5 6.844 428.48 161.549 544.094 319.5 503.991c89.089-22.619 160.425-93.629 183.951-183.106 3.841-14.61 7.522-36.374 7.538-44.576.006-2.855.461-5.469 1.011-5.809.595-.368 1-6.697 1-15.618 0-9.745-.35-14.784-1-14.382-.618.382-1.004-1.409-1.011-4.691-.028-14.138-7.313-47.916-14.6-67.694C466.923 88.136 397.14 26.106 315 6.88c-21.567-5.048-58.343-8.01-78-6.282m-58.858 124.958c-7.258 2.652-36.643 21.149-40.659 25.595-7.811 8.645-9.421 16.974-7.573 39.154 6.92 83.012 48.881 154.305 117.09 198.942 31.701 20.745 37.92 21.177 65.777 4.573 24.153-14.396 30.326-21.911 30.19-36.752-.074-8.092-17.213-40.188-26.467-49.563-11.447-11.598-26.685-12.467-43.115-2.459-17.009 10.361-18.592 10.179-30.511-3.512-16.874-19.382-30.731-42.587-37.413-62.651-4.684-14.064-4.091-15.556 9.489-23.901 16.191-9.95 21.394-17.449 21.494-30.982.069-9.302-.477-10.649-12.365-30.477-10.525-17.555-15.083-22.898-22.512-26.388-6.492-3.05-17.389-3.784-23.425-1.579m100.173 23.908c-5.54 2.409-7.701 8.956-4.805 14.556 1.928 3.727 4.186 4.897 12.915 6.694 30.402 6.255 56.287 31.017 64.759 61.949 1.772 6.471 2.161 10.742 2.231 24.506.083 16.181.155 16.744 2.495 19.235 4.706 5.011 12.793 4.031 16.765-2.031 2.535-3.868 3.097-26.981.936-38.467-8.284-44.032-40.469-77.185-83.926-86.453-8.08-1.723-7.384-1.723-11.37.011m-9.392 44.459c-6.214 6.214-2.937 15.727 6.216 18.044 22.884 5.791 34.866 20.162 35.461 42.533.147 5.5.296 10.597.333 11.327.329 6.533 11.64 9.314 17.301 4.253l3.266-2.919V254.33c0-15.473-2.212-23.568-9.483-34.706-13.424-20.564-43.616-35.179-53.094-25.701M.402 256c0 8.525.154 12.012.341 7.75s.188-11.238 0-15.5c-.187-4.262-.341-.775-.341 7.75"/></svg>