<svg xmlns="http://www.w3.org/2000/svg" width="512" height="512" viewBox="0 0 512 512"><path fill-rule="evenodd" d="M231.5 1.051C67.909 17.831-38.316 181.004 13.125 336.5 61.952 484.095 231.946 554.524 370.5 484.562c78.656-39.716 134.069-120.306 140.164-203.847.352-4.832 1.022-9.021 1.488-9.309.467-.288.848-7.724.848-16.524s-.384-15.763-.853-15.473-1.138-3.396-1.488-8.191C505.364 158.652 460.953 85.105 396.5 42.163c-46.433-30.937-109.936-46.76-165-41.112M111.063 142.185c-6.563 2.528-13.654 9.292-17.106 16.315l-2.457 5v185l2.255 4.576c3.307 6.711 8.318 12.095 14.386 15.456l5.359 2.968h285l5.359-2.968c6.073-3.364 10.959-8.612 14.334-15.396l2.307-4.636v-185l-2.255-4.576c-3.307-6.711-8.318-12.095-14.386-15.456L398.5 140.5l-141-.205c-140.974-.205-141.001-.205-146.437 1.89m33.973 25.207c3.158 3.003 109.104 86.725 110.352 87.203 1.027.395 104.793-80.694 111.576-87.192C368.221 166.199 352.501 166 256 166c-96.103 0-112.216.202-110.964 1.392M118 261.272c0 77.606.086 81.496 1.829 83.073 2.99 2.706 270.07 2.529 272.522-.18 1.524-1.684 1.64-8.534 1.405-82.884l-.256-81.049-21 16.729c-114.399 91.129-112.871 89.995-119.301 88.583-1.541-.339-18.978-13.45-38.75-29.137a340671 340671 0 0 1-94.154-74.73L118 179.855zM.407 256c0 9.075.152 12.788.337 8.25s.185-11.963 0-16.5-.337-.825-.337 8.25"/></svg>