<svg xmlns="http://www.w3.org/2000/svg" width="512" height="512" viewBox="0 0 512 512"><path fill-rule="evenodd" d="M231.511 1.062C77.478 17.068-26.252 160.194 6.159 312 29.986 423.598 134.792 510.361 247 511.378l13.5.122.255-99.25.255-99.25H206v-63.968l27.25-.266 27.25-.266.566-33.5c.514-30.407.77-34.239 2.771-41.5 7.615-27.629 25.988-46.01 53.663-53.687 8.821-2.447 43.835-3.234 64.75-1.455l9.75.829v57.654l-23.75.334c-39.455.553-41.25 2.576-41.25 46.484V249h31.5c17.325 0 31.498.338 31.496.75s-1.802 14.447-4 31.187S382 311.74 382 312.187s-12.375.813-27.5.813H327v94.5c0 51.975.175 94.5.389 94.5s5.55-1.78 11.859-3.955c75.057-25.881 134.593-86.137 159.613-161.545C505.579 316.253 511 288.91 511 275.276c0-2.352.45-4.276 1-4.276.625 0 1-6.02 1-16.059 0-10.451-.349-15.843-1-15.441-.612.378-1-1.197-1-4.063 0-2.574-.704-9.463-1.564-15.309C492.699 106.423 405.469 19.277 291.5 2.402c-12.267-1.817-47.771-2.609-59.989-1.34M.407 256c0 9.075.152 12.788.337 8.25s.185-11.963 0-16.5-.337-.825-.337 8.25"/></svg>