<svg xmlns="http://www.w3.org/2000/svg" width="512" height="512" viewBox="0 0 512 512"><path fill-rule="evenodd" d="M231.511 1.062C90.806 15.683-11.86 139.512 1.073 279c14.16 152.725 157.81 258.726 308.143 227.383C397 488.081 470.814 421.93 498.928 336.367 505.621 315.998 511 289.402 511 276.681c0-2.51.45-4.841 1-5.181.599-.37 1-7.03 1-16.618 0-10.412-.349-15.784-1-15.382-.612.378-1-1.197-1-4.063 0-2.574-.704-9.463-1.564-15.309C492.709 106.496 405.396 19.266 291.5 2.402c-12.267-1.817-47.771-2.609-59.989-1.34M193.44 110.064c-44.012 2.813-71.375 24.032-80.493 62.421-5.566 23.438-5.566 143.592 0 167.03 7.508 31.611 27.927 52.03 59.538 59.538 23.457 5.571 143.595 5.566 167.06-.007 39.198-9.31 59.472-36.23 62.451-82.924 1.266-19.847 1.268-100.913.002-120.45-3.581-55.293-30.377-82.089-85.67-85.67-17.217-1.116-105.16-1.071-122.888.062m26.06 26.048c-30.041.541-34.89.853-41.644 2.682-21.274 5.761-33.361 17.855-39.039 39.062-4.179 15.61-4.179 140.678 0 156.288 5.681 21.215 17.809 33.345 39.039 39.044 15.694 4.212 140.716 4.177 156.458-.044 20.716-5.554 33.276-18.114 38.83-38.83 4.221-15.742 4.256-140.764.044-156.458-8.111-30.217-25.373-40.635-68.688-41.456-45.607-.864-51.835-.885-85-.288m108 25.305c-11.457 5.114-14.016 20.221-4.873 28.769 8.915 8.336 23.191 5.325 27.996-5.904 6.086-14.222-9.02-29.159-23.123-22.865m-90 21.492c-25.353 6.913-44.045 24.178-52.865 48.83-4.71 13.163-4.71 35.359 0 48.522 8.055 22.513 25.195 39.494 47.865 47.421 7.432 2.598 9.101 2.797 23.5 2.797s16.068-.199 23.5-2.797c22.73-7.948 40.234-25.452 48.182-48.182 4.178-11.949 4.178-35.051 0-47-7.94-22.708-25.052-39.958-47.421-47.804-11.565-4.056-31.399-4.885-42.761-1.787m6.706 25.648c-26.291 7.076-42.303 33.455-35.698 58.812 12.976 49.818 82.022 49.766 95.003-.072 9.021-34.634-24.717-68.05-59.305-58.74M.407 256c0 9.075.152 12.788.337 8.25s.185-11.963 0-16.5-.337-.825-.337 8.25"/></svg>