<svg xmlns="http://www.w3.org/2000/svg" width="512" height="512" viewBox="0 0 512 512"><path fill-rule="evenodd" d="M231.511 1.062C67.577 18.097-38.325 180.4 12.967 336c46.752 141.829 205.948 214.107 342.996 155.727 85.594-36.461 148.408-122.113 154.715-210.966.344-4.857 1.008-9.067 1.474-9.355.467-.288.848-7.724.848-16.524 0-10.412-.349-15.784-1-15.382-.612.378-1-1.197-1-4.063 0-2.574-.704-9.463-1.564-15.309C492.702 106.446 405.446 19.274 291.5 2.402c-12.267-1.817-47.771-2.609-59.989-1.34m-80.709 110.27c-32.358 13.645-27.549 60.078 6.898 66.611 27.273 5.172 49.086-23.542 37.433-49.276-7.215-15.935-28.196-24.139-44.331-17.335M300.5 192.875c-10.343 2.553-18.686 7.43-25.576 14.95L269 214.289v-8.034c0-13.187.897-12.755-26.498-12.755h-22.675l-2.414 2.806-2.413 2.806v79.51c0 58.53.307 80.086 1.163 81.694 2.372 4.453 3.304 4.619 26.132 4.652l21.796.032 2.454-2.455 2.455-2.454.017-43.796c.022-54.059.905-59.746 10.973-70.668 10.989-11.922 32.442-10.748 41.049 2.246 6.231 9.407 6.28 9.86 6.898 63.967l.563 49.339 2.361 1.911c2.167 1.753 4.202 1.91 24.795 1.91h22.435l2.454-2.455 2.455-2.454-.003-50.296c-.004-72.57-2.629-86.496-19.475-103.304-13.93-13.9-39.496-19.423-63.022-13.616m-159 1.303c-4.568 2.688-4.435.152-4.468 84.961-.031 77.907.033 80.719 1.878 83 1.888 2.333 2.167 2.365 23.882 2.664l21.973.303 2.867-2.466 2.868-2.467V198.056l-2.276-2.278c-2.687-2.69-42.553-4.055-46.724-1.6M.407 256c0 9.075.152 12.788.337 8.25s.185-11.963 0-16.5-.337-.825-.337 8.25"/></svg>