<svg xmlns="http://www.w3.org/2000/svg" width="512" height="512" viewBox="0 0 512 512"><path fill-rule="evenodd" d="M11.5 240.412C.791 245.171-.487 252.686 3.581 287 18.705 414.599 126.895 510.313 256 510.313c101.713 0 192.574-59.421 233.151-152.477 4.008-9.193 9.962-26.056 9.398-26.62-.159-.159-2.922 1.077-6.141 2.747-3.219 1.671-6.428 3.037-7.13 3.037-.703 0-1.278.45-1.278 1s-1.125 1-2.5 1-2.5.402-2.5.892c0 .491-3.262 1.685-7.25 2.653s-7.476 2.101-7.753 2.517c-.277.417-1.807.911-3.399 1.098s-3.268 1.015-3.723 1.84c-17.639 32.021-26.571 44.633-44.2 62.41-55.516 55.983-131.536 77.349-210.175 59.07-92.162-21.422-161.344-106.04-166.466-203.607-.66-12.574-1.093-15.206-3.085-18.75-3.93-6.993-13.84-10.093-21.449-6.711"/></svg>