<svg xmlns="http://www.w3.org/2000/svg" width="512" height="512" viewBox="0 0 512 512"><path fill-rule="evenodd" d="M11.02 241.25c-8.027 4.102-8.537 5.562-8.405 24.086.727 101.875 74.324 201.036 171.885 231.587 3.85 1.205 9.7 3.045 13 4.087 30.631 9.678 76.764 11.657 116 4.976 18.875-3.214 59.672-17.316 69.5-24.023 1.375-.939 4.975-2.942 8-4.453 23.665-11.818 56.88-40.446 75.876-65.397C462.792 404.344 471 392.01 471 390.892c0-1.169-5.668-.413-7.347.981-.895.743-2.365 1.068-3.267.722-.983-.378-2.177.078-2.981 1.138-.738.972-1.356 1.236-1.373.587-.024-.875-.872-.915-3.282-.152-1.788.566-4.715.97-6.506.898s-4.118.331-5.17.894-2.061.641-2.243.172-3.09-.521-6.462-.115l-6.131.737-13.369 13.414c-13.464 13.509-25.713 23.717-35.869 29.889-3.025 1.838-5.725 3.643-6 4.011-.275.367-6.8 3.866-14.5 7.775-22.502 11.422-36.798 16.151-67.5 22.323-30.406 6.114-79.063.489-113.092-13.073-11.064-4.409-33.602-15.431-34.908-17.071-.275-.345-2.3-1.7-4.5-3.011-20.896-12.448-52.559-43.92-65.04-64.648-1.798-2.985-3.704-5.975-4.237-6.645-5.851-7.357-19.964-40.5-23.674-55.596-5.952-24.216-6.898-30.409-8.153-53.366C34.596 246.137 29.053 239 18.5 239c-1.692 0-5.058 1.012-7.48 2.25"/></svg>