<svg xmlns="http://www.w3.org/2000/svg" width="512" height="512" viewBox="0 0 512 512"><path fill-rule="evenodd" d="M173 17.922c0 .508-1.687 1.437-3.75 2.066-18.319 5.586-55.513 27.026-70.122 40.421-7.909 7.252-11.512 22.48-7.647 32.321 16.553 42.148-9.006 84.688-54.778 91.17-14.293 2.024-25.326 13.47-27.086 28.1-1.495 12.433-1.857 14-3.231 14C5.235 226 5 231.092 5 256c0 24.744.24 30 1.371 30 .943 0 1.582 1.951 2.046 6.25 1.865 17.251 13.665 27.43 35.083 30.262C61.763 324.927 82.4 342.31 90.377 362c5.234 12.918 5.695 34.943.96 45.933-10.838 25.161-5.073 36.468 30.255 59.339C132.059 474.048 154.238 486 156.345 486c.515 0 2.785.884 5.045 1.965 2.261 1.08 5.798 2.632 7.86 3.449s3.75 1.957 3.75 2.535c0 .652 3.225 1.051 8.5 1.051 6.513 0 8.5-.319 8.5-1.364 0-.75 1.974-2.118 4.386-3.039 3.279-1.253 7.032-4.504 14.874-12.886 31.117-33.261 71.733-33.721 101.384-1.149 11.211 12.317 14.28 13.877 27.356 13.911 7.966.02 11.224-.375 13.5-1.638 1.65-.916 7.725-3.977 13.5-6.804 34.678-16.971 56.839-34.415 61.095-48.089 2.538-8.153 2.477-8.96-1.713-22.634-13.175-42.995 9.902-80.123 54.82-88.197C495.403 320.198 506 304.645 506 283.776c0-.427.675-.776 1.5-.776 1.298 0 1.5-3.833 1.5-28.5s-.202-28.5-1.5-28.5c-.825 0-1.514-.787-1.531-1.75-.412-23.353-10.597-35.634-32.969-39.755-9.679-1.783-24.144-9.87-31.63-17.684-18.467-19.276-23.568-45.008-14.186-71.564 3.569-10.104.315-23.588-7.479-30.983-15.41-14.623-54.907-37.936-74.955-44.24-2.062-.648-3.75-1.594-3.75-2.102S337.4 17 333 17c-4.444 0-8 .427-8 .96 0 .528-1.871 1.52-4.157 2.205-3.043.912-6.461 3.551-12.75 9.845C290.535 47.582 276.866 54 257 54c-19.994 0-33.397-6.298-51.06-23.994-6.297-6.308-9.668-8.908-12.75-9.831-2.305-.69-4.19-1.687-4.19-2.215 0-.533-3.556-.96-8-.96-4.4 0-8 .415-8 .922m63.5 156.563c-73.106 21.121-86.103 111.821-21.965 153.285 1.081.699 3.54 1.948 5.465 2.775 1.925.828 4.312 1.963 5.305 2.523 5.392 3.04 21.02 5.931 31.958 5.913 26.918-.045 50.175-11.726 66.558-33.431 32.091-42.514 16.691-103.058-32.042-125.977-16.653-7.832-38.742-9.865-55.279-5.088"/></svg>