<svg xmlns="http://www.w3.org/2000/svg" width="512" height="512" viewBox="0 0 512 512"><path fill-rule="evenodd" d="M242 1.614C61.629 13.792-50.654 197.973 22.933 360.957 76.87 480.421 212.696 540.21 335.5 498.545 497.241 443.67 561.562 253.303 465.936 112.5 416.807 40.161 327.327-4.147 242 1.614m-13.625 117.878c-42.609 8.661-77.202 34.522-96.715 72.303-19.273 37.316-19.717 84.992-1.14 122.339l4.294 8.634-9.589 35.1c-5.274 19.305-9.312 35.378-8.972 35.718.564.565 20.488-4.438 57.614-14.467l14.368-3.88 7.376 3.408c121.244 56.018 243.305-75.51 178.131-191.947-16.042-28.659-49-55.128-78.742-63.237-3.575-.975-7.213-2.129-8.084-2.564-8.394-4.195-40.972-4.978-58.541-1.407m2.024 24.986c-76.022 17.602-112.553 100.206-73.806 166.891l4.581 7.884-5.507 20.121c-3.028 11.066-5.417 20.209-5.308 20.318s9.589-2.235 21.067-5.208l20.868-5.407 6.074 3.559c66.302 38.859 153.744-2.526 167.095-79.082 13.667-78.375-58.045-146.908-135.064-129.076m-30.119 47.155c-15.798 7.789-20.628 33.77-10.2 54.867 18.1 36.618 53.543 65.106 90.92 73.079 22.933 4.891 42.358-7.203 42.461-26.437l.039-7.365-13.5-6.863c-21.727-11.045-20.823-11.053-29.906.28-7.54 9.409-8.116 9.61-16.613 5.797-14.585-6.543-28.926-18.782-38.303-32.686-4.861-7.207-5.107-9.084-1.622-12.358 3.846-3.613 8.444-10.995 8.444-13.557 0-4.006-11.822-31.717-14.565-34.14-3.123-2.759-12.151-3.084-17.155-.617"/></svg>