<svg xmlns="http://www.w3.org/2000/svg" width="512" height="512" viewBox="0 0 512 512"><path fill-rule="evenodd" d="M231.5 2.086C76.828 17.946-27.311 162.276 6.582 313.805 37.134 450.39 174.511 536.351 312.805 505.418 427.766 479.703 511 375.167 511 256.5 511 106.582 379.526-13.092 231.5 2.086m11 115.511c-38.556 5.656-61.879 16.662-85.524 40.358-41.208 41.299-51.559 104.299-25.75 156.717l4.024 8.173-8.096 29.827c-4.453 16.406-8.764 32.042-9.579 34.749-2.012 6.679-2.006 6.681 9.651 3.549 5.651-1.518 21.699-5.754 35.663-9.413l25.388-6.653 9.112 3.987c35.432 15.507 76.343 16.171 109.631 1.779 56.934-24.614 90.637-82.747 83.027-143.206-1.944-15.442-.962-14.464-14.522-14.464-13.156 0-12.337-.841-9.924 10.185 9.491 43.356-12.366 92.863-51.858 117.459-33.969 21.157-80.756 22.512-114.073 3.303-8.379-4.831-5.396-4.955-28.925 1.205-10.865 2.844-20.038 4.889-20.384 4.543s.837-5.932 2.627-12.412c1.791-6.481 4.264-15.426 5.497-19.877l2.24-8.095-5.23-9.136c-31.355-54.773-10.599-126.164 45.344-155.966 22.973-12.238 54.471-16.43 78.387-10.433 4.25 1.066 7.963 1.702 8.25 1.414.965-.965.54-23.062-.455-23.677-3.96-2.447-35.576-5.229-44.521-3.916m91.167 1.07c-.367.366-.667 8.005-.667 16.975v16.31l-16.75.274-16.75.274v23l16.726.274 16.726.274.274 16.726.274 16.726 11.75.282 11.75.281V176h34v-24h-34v-34h-11.333c-6.234 0-11.634.3-12 .667m-134.232 74.21c-10.98 6.695-17.194 23.951-14.04 38.988 5.066 24.147 36.059 61.178 62.983 75.251 24.047 12.57 45.153 15.836 58.831 9.102 11.189-5.508 16.005-12.854 16.206-24.718l.085-5-15.429-7.75c-19.695-9.892-19.156-9.905-27.536.669-8.478 10.699-8.154 10.612-19.145 5.155-15.553-7.72-28.204-18.877-37.446-33.022-4.901-7.5-4.912-7.27.669-13.72 8.403-9.712 8.397-9.591 1.322-27.13-7.681-19.042-8.246-19.703-16.859-19.698-4.658.002-7.47.549-9.641 1.873"/></svg>