<svg xmlns="http://www.w3.org/2000/svg" width="512" height="512" viewBox="0 0 512 512"><path fill-rule="evenodd" d="M237 .598C82.355 14.189-24.235 154.59 5.144 306c5.975 30.794 18.728 62.016 36.492 89.343l7.163 11.019-15.912 46.973c-8.752 25.835-15.774 47.111-15.605 47.281.17.169 22.059-6.65 48.643-15.154C92.51 476.958 114.616 470 115.051 470s4.539 2.33 9.12 5.177C183.628 512.135 263.962 521.904 332 500.45c91.247-28.773 159.931-106.948 176.056-200.388 3.897-22.58 6.483-61.131 3.998-59.595-.688.425-1.058-1.195-1.065-4.658-.028-14.138-7.313-47.916-14.6-67.694C466.923 88.136 397.14 26.106 315 6.88c-21.567-5.048-58.343-8.01-78-6.282m-91.725 118.577c-14.565 4.886-29.706 24.754-35.306 46.325-9.272 35.72 3.813 72.337 43.955 123 46.212 58.324 100.798 94.107 165.576 108.541 38.765 8.639 78.805-10.53 87.817-42.041 2.949-10.311 4.2-22.332 2.807-26.979l-1.248-4.168-26.017-12.866c-47.434-23.457-49.339-23.754-59.647-9.281-19.899 27.938-23.37 30.228-37.662 24.849-37.044-13.943-72.458-44.399-95.968-82.531-7.341-11.907-7.12-12.692 8.599-30.436 8.145-9.195 11.819-15.424 11.819-20.039 0-3.206-24.892-63.833-28.657-69.797-3.453-5.47-7.215-6.761-19.561-6.709-7.685.032-11.854.571-16.507 2.132M.395 254.5c.001 7.7.158 10.718.348 6.706.191-4.011.189-10.311-.002-14-.192-3.688-.348-.406-.346 7.294"/></svg>